<svg id="Слой_1" data-name="Слой 1" xmlns="http://www.w3.org/2000/svg" viewBox="0 0 512 512"><defs><style>.cls-1{fill:#1f62ae;}.cls-2{fill:#347dc6;}.cls-3{fill:#fff;}</style></defs><polygon class="cls-1" points="423.67 445.96 256 491.82 88.33 445.96 49.65 20.18 462.35 20.18 423.67 445.96"/><polygon class="cls-2" points="255.99 49.66 255.99 458.65 392.05 418.24 428.25 49.66 255.99 49.66"/><polygon class="cls-3" points="379.24 108.61 132.28 108.61 138.08 167.57 255.99 167.57 141.76 211.64 147.2 270.74 307.6 270.74 302.53 329.69 255.99 344.28 209.72 329.46 204.89 300.22 149.91 300.22 156.68 373.72 255.99 403.24 355.15 373.7 369.75 211.64 256.37 211.64 373.89 167.57 379.24 108.61"/></svg>