<svg id="Слой_1" data-name="Слой 1" xmlns="http://www.w3.org/2000/svg" viewBox="0 0 512 512"><defs><style>.cls-1{fill:#181616;fill-rule:evenodd;}</style></defs><path class="cls-1" d="M256,25.51c-130.5,0-236.3,105.8-236.3,236.32,0,104.41,67.69,193,161.62,224.25,11.82,2.15,15.54-4.85,15.54-11.11,0-5.62.12-21.31,0-41-65.73,14.29-79.35-31.13-79.35-31.13-10.74-27.3-26.22-34.56-26.22-34.56-21.45-14.66,1.61-14.38,1.61-14.38,23.71,1.67,36.21,24.36,36.21,24.36,21.08,36.09,55.29,25.66,68.75,19.64,2.16-15.28,8.28-25.69,15-31.6-52.48-6-107.64-26.24-107.64-116.8,0-25.81,9.2-46.89,24.32-63.41-2.44-6-10.57-30,2.32-62.55,0,0,19.84-6.35,65,24.25a224.13,224.13,0,0,1,118.33,0c45.13-30.58,64.94-24.25,64.94-24.25,12.89,32.55,4.78,56.58,2.35,62.55,15.12,16.52,24.29,37.6,24.29,63.41,0,90.8-55.25,110.77-107.9,116.6,8.48,7.32,16.17,21.5,16.17,43.54V475c0,6.32,3.82,13.31,15.81,11,93.84-31.31,161.47-119.84,161.47-224.22C492.31,131.31,386.51,25.51,256,25.51Z"/></svg>