<svg id="Слой_1" data-name="Слой 1" xmlns="http://www.w3.org/2000/svg" viewBox="0 0 512 512"><defs><style>.cls-1{fill:#cf4547;}.cls-2{fill:#fffefe;}</style></defs><path class="cls-1" d="M480.73,490.73H31.27a10,10,0,0,1-10-10V31.27a10,10,0,0,1,10-10H480.73a10,10,0,0,1,10,10V480.73A10,10,0,0,1,480.73,490.73ZM161.55,281.4l.36.33c-.51,1.64-1,3.28-1.52,4.91-2.49,7.82-4.88,15.66-7,23.59a26.58,26.58,0,0,0-.86,8.37,14.57,14.57,0,0,0,.71,4.15,4.46,4.46,0,0,0,3.43,3,5.57,5.57,0,0,0,4.54-.91,12.88,12.88,0,0,0,3.18-3.28,25.22,25.22,0,0,0,3.56-7.61c2.31-8.07,4.57-16.14,7-24.17,3.19-10.6,6.06-21.3,10-31.67.78-2.06,1.52-4.13,2.3-6.19,1.44-3.84,2.91-7.67,4-11.63a49.78,49.78,0,0,0,2-13.4,10,10,0,0,0-.35-2.72,6.28,6.28,0,0,0-5.85-4.76,8.4,8.4,0,0,0-7.5,3.47,13.64,13.64,0,0,0-2.13,4.24c-2.17,6.51-4.39,13-6.51,19.51a25.26,25.26,0,0,1-2.92,6.11c-.68,1-1.35,2-2.06,3a124,124,0,0,1-9.74,12,105.29,105.29,0,0,1-13.73,12.72,41.48,41.48,0,0,1-7.81,4.8,12.05,12.05,0,0,1-5.51,1.18,5.75,5.75,0,0,1-4-1.69,10.08,10.08,0,0,1-2.16-3.17,20.26,20.26,0,0,1-1.43-5.68,51.31,51.31,0,0,1,.55-14.27,106,106,0,0,1,4.11-16.37,170,170,0,0,1,13.6-30.47,135.5,135.5,0,0,1,14.47-21.21,67.57,67.57,0,0,1,11.1-10.68,26.16,26.16,0,0,1,7.37-4.06,13.6,13.6,0,0,1,6.32-.79,12.15,12.15,0,0,1,7.55,4.16,25.79,25.79,0,0,1,3.21,4.69,60.37,60.37,0,0,0,3.65,6,18.22,18.22,0,0,0,2.12,2.53,6.21,6.21,0,0,0,8.91-.07,8.88,8.88,0,0,0,2.64-5c.74-4.45.25-8.67-2.62-12.37-.23-.29-.42-.6-.63-.9a41.79,41.79,0,0,0-9.55-9.86,28.5,28.5,0,0,0-23.18-4.86,40.94,40.94,0,0,0-10.46,3.9,70.89,70.89,0,0,0-16.32,12.11,127.18,127.18,0,0,0-18.76,23.49,172.13,172.13,0,0,0-14.08,27.62,157.85,157.85,0,0,0-8.12,26.08,125.7,125.7,0,0,0-2.28,15.07,46.23,46.23,0,0,0,.91,15.51,28.12,28.12,0,0,0,6,12.07,19,19,0,0,0,14.62,6.94,25.56,25.56,0,0,0,10.36-2.1,59.83,59.83,0,0,0,12-7,112.17,112.17,0,0,0,13-11.31Zm149.3,7.39.35.31c-.25.62-.47,1.26-.75,1.87q-7.36,16-14.75,32c-1.73,3.72-3.28,7.52-4.72,11.36-.46,1.2-.84,2.43-1.19,3.66a16.9,16.9,0,0,0-.53,6.56,5.41,5.41,0,0,0,4.15,5,9.57,9.57,0,0,0,8.57-1.34,14.66,14.66,0,0,0,3.8-4.2,28.77,28.77,0,0,0,2.64-5.65c.45-1.27.87-2.55,1.34-3.81q3.17-8.52,6.36-17c1.41-3.72,2.77-7.46,4.34-11.12,2.63-6.13,5.42-12.19,8.11-18.3a115.36,115.36,0,0,1,9.85-18.24,84.07,84.07,0,0,1,11.94-14.4,38.27,38.27,0,0,1,6.69-5.14,19.42,19.42,0,0,1,5.71-2.45,11.5,11.5,0,0,1,3.65-.25c1.59.16,2.15.89,1.91,2.48a5.59,5.59,0,0,1-.47,1.57,28,28,0,0,1-1.51,2.74,71.94,71.94,0,0,1-5.22,7.1c-2.52,3.08-5.08,6.13-7.61,9.21a111.09,111.09,0,0,0-9.86,13.48,26.59,26.59,0,0,0-2,4.1,12.91,12.91,0,0,0-.85,5.77,9.34,9.34,0,0,0,4.11,7.25,13,13,0,0,0,6,2.19,30.33,30.33,0,0,0,15.13-2A53.41,53.41,0,0,0,377.58,295a151.19,151.19,0,0,0,12.72-10.56c5.63-5.1,11.24-10.23,16.91-15.29a13.12,13.12,0,0,0,4.38-9.38,8,8,0,0,0-.93-4.44,3.53,3.53,0,0,0-4.35-1.81A8.75,8.75,0,0,0,405,254a13,13,0,0,0-2.85,2c-7.44,6.66-14.93,13.27-22.58,19.69-3,2.56-6.11,5.11-9.31,7.48-1.57,1.17-3.2,2.26-4.84,3.34a11.59,11.59,0,0,1-3.15,1.46,3.4,3.4,0,0,1-2.16-.08,1.55,1.55,0,0,1-.88-2.37,16.86,16.86,0,0,1,1.64-2.21c2.13-2.53,4.3-5,6.45-7.55a159.74,159.74,0,0,0,11.32-14.46A63.89,63.89,0,0,0,384.28,251a19.84,19.84,0,0,0,1.74-9.12,10.37,10.37,0,0,0-1.64-5,13,13,0,0,0-6-5,19.42,19.42,0,0,0-15.7.13,42.89,42.89,0,0,0-8.13,4.61A79.53,79.53,0,0,0,344.8,245a4.81,4.81,0,0,1-1.4,1.19,2.71,2.71,0,0,1,0-1.67c.14-1.09.33-2.17.49-3.26a8.29,8.29,0,0,0-.29-3.64,4.76,4.76,0,0,0-3.1-3.39c-3.5-1.15-5.81-.56-7.84,2.11-.41.54-.81,1.08-1.19,1.64a28.54,28.54,0,0,0-2.22,4,101.62,101.62,0,0,0-4.72,12.53q-.74,2.37-1.46,4.74a3,3,0,0,1-1.18,1.78,12,12,0,0,0-1.6,1.51,191.36,191.36,0,0,1-15.59,14,88.2,88.2,0,0,1-8,5.82A37.71,37.71,0,0,1,292,285a12,12,0,0,1-2.6.87c-1.78.37-2.59-.22-2.67-2a12.9,12.9,0,0,1,.14-2.56,37.17,37.17,0,0,1,2.27-7.74c6.45-16.48,13.09-32.88,19.8-49.25,5.06-12.35,10.19-24.67,15.64-36.85.48-1.06.89-2.15,1.29-3.25a10.82,10.82,0,0,0,.5-4.89,6.09,6.09,0,0,0-1.92-4.06,7.43,7.43,0,0,0-5.74-2,9.63,9.63,0,0,0-7.73,4.63,19.74,19.74,0,0,0-1.5,3.15q-3.42,8.63-6.84,17.24c-9.4,23.87-19,47.65-28.23,71.59a74,74,0,0,0-2.69,8.19,3.28,3.28,0,0,1-1.21,2,46.89,46.89,0,0,1-7.66,5,24.6,24.6,0,0,1-4.6,1.82,8.19,8.19,0,0,1-2.91.26,2.3,2.3,0,0,1-2.4-2.46,19.4,19.4,0,0,1,.1-2.75,45.36,45.36,0,0,1,1.85-8.79,137.41,137.41,0,0,1,5.9-15.63c2-4.6,4.09-9.17,5.8-13.9a20.18,20.18,0,0,0,1.12-4.06,9.14,9.14,0,0,0-1.3-6.16,6.45,6.45,0,0,0-10.36-.82,23.19,23.19,0,0,0-2.09,3,31,31,0,0,0-2.2,4.84c-.81,2.25-1.54,4.52-2.36,6.76a113.75,113.75,0,0,1-8,16.53,77,77,0,0,1-6.56,9.75,44.39,44.39,0,0,1-8.61,8.49,17.72,17.72,0,0,1-6.58,3.14,13.89,13.89,0,0,1-3.46.36,2.37,2.37,0,0,1-2.26-1.59,6.11,6.11,0,0,1-.47-2.5,31.66,31.66,0,0,1,1-6.72,81.31,81.31,0,0,1,6.22-16.66c2.16-4.39,4.46-8.72,6.69-13.08.64-1.26,1.26-2.52,1.86-3.79a12.29,12.29,0,0,0,1-3.52,5.69,5.69,0,0,0-1.88-5.13,7,7,0,0,0-2.85-1.61,8.77,8.77,0,0,0-9,2.14,13.05,13.05,0,0,0-2.66,3.72c-.68,1.37-1.33,2.76-2,4.14a259.7,259.7,0,0,0-12.89,32,85.42,85.42,0,0,0-3.27,12.6,21,21,0,0,0,.18,8.76c1.09,4.1,3.45,7.12,7.54,8.6a14.25,14.25,0,0,0,3.58.79,30.71,30.71,0,0,0,10.92-.94,36.41,36.41,0,0,0,14.41-8.16,50.6,50.6,0,0,0,7-7.78c.27-.37.45-.87,1-1,.3.44.1.86.07,1.27a47.17,47.17,0,0,0-.3,5.32,19.1,19.1,0,0,0,1,5.95,8.06,8.06,0,0,0,6.52,5.29,13.63,13.63,0,0,0,4.93-.12,27.48,27.48,0,0,0,6.43-2.15,62.94,62.94,0,0,0,9.95-5.87,4.15,4.15,0,0,1,1.43-.88,7.08,7.08,0,0,1,.81,2.18,10,10,0,0,0,7.49,6.63,18.6,18.6,0,0,0,7.13.1,30,30,0,0,0,9.46-3.38,65.8,65.8,0,0,0,11.21-7.64Z"/><path class="cls-2" d="M310.85,288.79l-4.38,3.63a65.8,65.8,0,0,1-11.21,7.64,30,30,0,0,1-9.46,3.38,18.6,18.6,0,0,1-7.13-.1,10,10,0,0,1-7.49-6.63,7.08,7.08,0,0,0-.81-2.18,4.15,4.15,0,0,0-1.43.88,62.94,62.94,0,0,1-9.95,5.87,27.48,27.48,0,0,1-6.43,2.15,13.63,13.63,0,0,1-4.93.12,8.06,8.06,0,0,1-6.52-5.29,19.1,19.1,0,0,1-1-5.95,47.17,47.17,0,0,1,.3-5.32c0-.41.23-.83-.07-1.27-.54.1-.72.6-1,1a50.6,50.6,0,0,1-7,7.78,36.41,36.41,0,0,1-14.41,8.16,30.71,30.71,0,0,1-10.92.94,14.25,14.25,0,0,1-3.58-.79c-4.09-1.48-6.45-4.5-7.54-8.6a21,21,0,0,1-.18-8.76,85.42,85.42,0,0,1,3.27-12.6,259.7,259.7,0,0,1,12.89-32c.66-1.38,1.31-2.77,2-4.14a13.05,13.05,0,0,1,2.66-3.72,8.77,8.77,0,0,1,9-2.14,7,7,0,0,1,2.85,1.61,5.69,5.69,0,0,1,1.88,5.13,12.29,12.29,0,0,1-1,3.52c-.6,1.27-1.22,2.53-1.86,3.79-2.23,4.36-4.53,8.69-6.69,13.08a81.31,81.31,0,0,0-6.22,16.66,31.66,31.66,0,0,0-1,6.72,6.11,6.11,0,0,0,.47,2.5,2.37,2.37,0,0,0,2.26,1.59,13.89,13.89,0,0,0,3.46-.36,17.72,17.72,0,0,0,6.58-3.14,44.39,44.39,0,0,0,8.61-8.49,77,77,0,0,0,6.56-9.75,113.75,113.75,0,0,0,8-16.53c.82-2.24,1.55-4.51,2.36-6.76a31,31,0,0,1,2.2-4.84,23.19,23.19,0,0,1,2.09-3,6.45,6.45,0,0,1,10.36.82,9.14,9.14,0,0,1,1.3,6.16,20.18,20.18,0,0,1-1.12,4.06c-1.71,4.73-3.79,9.3-5.8,13.9a137.41,137.41,0,0,0-5.9,15.63,45.36,45.36,0,0,0-1.85,8.79,19.4,19.4,0,0,0-.1,2.75,2.3,2.3,0,0,0,2.4,2.46,8.19,8.19,0,0,0,2.91-.26,24.6,24.6,0,0,0,4.6-1.82,46.89,46.89,0,0,0,7.66-5,3.28,3.28,0,0,0,1.21-2,74,74,0,0,1,2.69-8.19c9.21-23.94,18.83-47.72,28.23-71.59q3.41-8.62,6.84-17.24a19.74,19.74,0,0,1,1.5-3.15,9.63,9.63,0,0,1,7.73-4.63,7.43,7.43,0,0,1,5.74,2,6.09,6.09,0,0,1,1.92,4.06,10.82,10.82,0,0,1-.5,4.89c-.4,1.1-.81,2.19-1.29,3.25C319.14,199.6,314,211.92,309,224.27c-6.71,16.37-13.35,32.77-19.8,49.25a37.17,37.17,0,0,0-2.27,7.74,12.9,12.9,0,0,0-.14,2.56c.08,1.78.89,2.37,2.67,2A12,12,0,0,0,292,285a37.71,37.71,0,0,0,4.67-2.55,88.2,88.2,0,0,0,8-5.82,191.36,191.36,0,0,0,15.59-14,12,12,0,0,1,1.6-1.51,3,3,0,0,0,1.18-1.78q.72-2.37,1.46-4.74A101.62,101.62,0,0,1,329.26,242a28.54,28.54,0,0,1,2.22-4c.38-.56.78-1.1,1.19-1.64,2-2.67,4.34-3.26,7.84-2.11a4.76,4.76,0,0,1,3.1,3.39,8.29,8.29,0,0,1,.29,3.64c-.16,1.09-.35,2.17-.49,3.26a2.71,2.71,0,0,0,0,1.67,4.81,4.81,0,0,0,1.4-1.19,79.53,79.53,0,0,1,9.77-8.36,42.89,42.89,0,0,1,8.13-4.61,19.42,19.42,0,0,1,15.7-.13,13,13,0,0,1,6,5,10.37,10.37,0,0,1,1.64,5,19.84,19.84,0,0,1-1.74,9.12,63.89,63.89,0,0,1-5.69,10.27,159.74,159.74,0,0,1-11.32,14.46c-2.15,2.52-4.32,5-6.45,7.55a16.86,16.86,0,0,0-1.64,2.21,1.55,1.55,0,0,0,.88,2.37,3.4,3.4,0,0,0,2.16.08,11.59,11.59,0,0,0,3.15-1.46c1.64-1.08,3.27-2.17,4.84-3.34,3.2-2.37,6.26-4.92,9.31-7.48,7.65-6.42,15.14-13,22.58-19.69a13,13,0,0,1,2.85-2,8.75,8.75,0,0,1,1.36-.54,3.53,3.53,0,0,1,4.35,1.81,8,8,0,0,1,.93,4.44,13.12,13.12,0,0,1-4.38,9.38c-5.67,5.06-11.28,10.19-16.91,15.29A151.19,151.19,0,0,1,377.58,295,53.41,53.41,0,0,1,366,301.58a30.33,30.33,0,0,1-15.13,2,13,13,0,0,1-6-2.19,9.34,9.34,0,0,1-4.11-7.25,12.91,12.91,0,0,1,.85-5.77,26.59,26.59,0,0,1,2-4.1,111.09,111.09,0,0,1,9.86-13.48c2.53-3.08,5.09-6.13,7.61-9.21a71.94,71.94,0,0,0,5.22-7.1,28,28,0,0,0,1.51-2.74,5.59,5.59,0,0,0,.47-1.57c.24-1.59-.32-2.32-1.91-2.48a11.5,11.5,0,0,0-3.65.25,19.42,19.42,0,0,0-5.71,2.45,38.27,38.27,0,0,0-6.69,5.14,84.07,84.07,0,0,0-11.94,14.4,115.36,115.36,0,0,0-9.85,18.24c-2.69,6.11-5.48,12.17-8.11,18.3-1.57,3.66-2.93,7.4-4.34,11.12q-3.21,8.51-6.36,17c-.47,1.26-.89,2.54-1.34,3.81a28.77,28.77,0,0,1-2.64,5.65,14.66,14.66,0,0,1-3.8,4.2,9.57,9.57,0,0,1-8.57,1.34,5.41,5.41,0,0,1-4.15-5,16.9,16.9,0,0,1,.53-6.56c.35-1.23.73-2.46,1.19-3.66,1.44-3.84,3-7.64,4.72-11.36q7.41-16,14.75-32c.28-.61.5-1.25.75-1.87.1-.19.24-.39,0-.54C311.14,288.53,311,288.71,310.85,288.79Z"/><path class="cls-2" d="M161.55,281.4l-3.39,3.36a112.17,112.17,0,0,1-13,11.31,59.83,59.83,0,0,1-12,7,25.56,25.56,0,0,1-10.36,2.1,19,19,0,0,1-14.62-6.94,28.12,28.12,0,0,1-6-12.07,46.23,46.23,0,0,1-.91-15.51,125.7,125.7,0,0,1,2.28-15.07,157.85,157.85,0,0,1,8.12-26.08,172.13,172.13,0,0,1,14.08-27.62,127.18,127.18,0,0,1,18.76-23.49,70.89,70.89,0,0,1,16.32-12.11,40.94,40.94,0,0,1,10.46-3.9,28.5,28.5,0,0,1,23.18,4.86,41.79,41.79,0,0,1,9.55,9.86c.21.3.4.61.63.9,2.87,3.7,3.36,7.92,2.62,12.37a8.88,8.88,0,0,1-2.64,5,6.21,6.21,0,0,1-8.91.07,18.22,18.22,0,0,1-2.12-2.53,60.37,60.37,0,0,1-3.65-6,25.79,25.79,0,0,0-3.21-4.69,12.15,12.15,0,0,0-7.55-4.16,13.6,13.6,0,0,0-6.32.79,26.16,26.16,0,0,0-7.37,4.06,67.57,67.57,0,0,0-11.1,10.68,135.5,135.5,0,0,0-14.47,21.21,170,170,0,0,0-13.6,30.47,106,106,0,0,0-4.11,16.37,51.31,51.31,0,0,0-.55,14.27,20.26,20.26,0,0,0,1.43,5.68,10.08,10.08,0,0,0,2.16,3.17,5.75,5.75,0,0,0,4,1.69,12.05,12.05,0,0,0,5.51-1.18,41.48,41.48,0,0,0,7.81-4.8,105.29,105.29,0,0,0,13.73-12.72,124,124,0,0,0,9.74-12c.71-1,1.38-2,2.06-3a25.26,25.26,0,0,0,2.92-6.11c2.12-6.52,4.34-13,6.51-19.51a13.64,13.64,0,0,1,2.13-4.24,8.4,8.4,0,0,1,7.5-3.47,6.28,6.28,0,0,1,5.85,4.76,10,10,0,0,1,.35,2.72,49.78,49.78,0,0,1-2,13.4c-1.11,4-2.58,7.79-4,11.63-.78,2.06-1.52,4.13-2.3,6.19-4,10.37-6.82,21.07-10,31.67-2.43,8-4.69,16.1-7,24.17a25.22,25.22,0,0,1-3.56,7.61,12.88,12.88,0,0,1-3.18,3.28,5.57,5.57,0,0,1-4.54.91,4.46,4.46,0,0,1-3.43-3,14.57,14.57,0,0,1-.71-4.15,26.58,26.58,0,0,1,.86-8.37c2.09-7.93,4.48-15.77,7-23.59.52-1.63,1-3.27,1.52-4.91.1-.19.19-.4,0-.57C161.87,281.13,161.67,281.31,161.55,281.4Z"/><path class="cls-1" d="M310.85,288.79c.12-.08.29-.26.34-.23.25.15.11.35,0,.54Z"/><path class="cls-1" d="M161.55,281.4c.12-.09.32-.27.35-.24.2.17.11.38,0,.57Z"/></svg>