<svg id="Слой_1" data-name="Слой 1" xmlns="http://www.w3.org/2000/svg" viewBox="0 0 512 512"><defs><style>.cls-1{fill:#c9461a;}</style></defs><path class="cls-1" d="M491,256q0,112.54.05,225.08a10,10,0,0,1-10,10Q256,491,30.92,491.08a10,10,0,0,1-10-10Q21,256,20.92,30.92a10,10,0,0,1,10-10q225.08.07,450.16,0a10,10,0,0,1,10,10Q491,143.47,491,256ZM214.3,126.83c.3,1.06.45,1.72.67,2.36q15.33,45.24,30.73,90.44c.65,1.9.44,2.68-1.55,3.36a31.23,31.23,0,0,0-14.71,10.76A33.52,33.52,0,0,0,234.23,280c1,.88,2.58,1.41,1.07,3.38A90.92,90.92,0,0,1,199.14,312a2.66,2.66,0,0,1-3.18-.41c-6.73-5.62-10-12.63-8.74-21.49a5.16,5.16,0,0,1,3.63-4.62,33,33,0,0,0,20.6-35.5c-2.16-14.39-10.53-23.75-24.36-27.89a32.76,32.76,0,0,0-35.17,11.68c-8.71,11.56-9.48,23.93-3.12,36.94,1.45,3,5.56,4.8,4.82,8.38-.68,3.34-2.85,6.38-4.38,9.55-8.12,16.92-12.42,34.5-9.63,53.42a51.06,51.06,0,0,0,46.9,43.26c11.89.81,23.13-1.65,34.15-5.68,14.91-5.44,28.76-13.18,43.08-19.91,12.24-5.75,24.67-10.85,38.2-12.82,9.47-1.38,19-2.45,28.25-5.15,30.76-9,45-39,32.31-68.15a3.51,3.51,0,0,1,.37-3.47,33.56,33.56,0,0,0-18.44-47.43c-2.44-.86-2.47-1.58-1.72-3.77q15.14-44.2,30.06-88.5c1.22-3.62,1.21-3.62-2.5-3.62h-156Z"/><path class="cls-1" d="M171.72,294.26c.1,15.41,9.8,28.07,23.48,34.56,1.13.54,2.07.07,3.07-.29,21-7.47,37.83-20.53,50.75-38.63a4.51,4.51,0,0,1,4.49-2.25c16,.8,28.91-8,34.24-23.13.48-1.37,1-2.07,2.63-2,3,.15,6.23-.55,9.06.21,3.27.88,2.77,4.89,4.17,7.39,8.76,15.66,27.56,22.08,43.7,14.42,3-1.43,3.32-.19,3.85,2.07,4.26,18.08-6.07,34.83-25,40.5-8.75,2.62-17.82,3.5-26.81,4.86-15.14,2.28-29.15,7.89-42.88,14.42s-27.08,14-41.44,19.21c-9.25,3.35-18.66,5.63-28.68,4.48a36.21,36.21,0,0,1-32-32c-1.84-15.68,2.34-30,9.06-43.86,1-2,2.14-4,2.91-6.07s1.89-1.66,3.45-1.28,2.74.77,2.28,2.82A32.69,32.69,0,0,0,171.72,294.26Z"/><path class="cls-1" d="M294.06,164.54C284.9,183.07,276,201,267.14,219c-.5,1-.63,2.62-1.82,2.82-1.46.24-3,.06-3.69-1.95q-13-38.61-26-77.17c0-.08,0-.19.08-.47h117c-1.27,3.77-2.49,7.45-3.74,11.11q-11.19,33-22.4,66c-.28.83-.34,1.86-1.17,2.28-1.73.88-3,.81-4-1.38-8.4-17.43-16.95-34.78-25.46-52.14C295.42,167.07,294.86,166.07,294.06,164.54Z"/><path class="cls-1" d="M237.11,254.15a18.8,18.8,0,0,1,37.59.15,18.8,18.8,0,1,1-37.59-.15Z"/><path class="cls-1" d="M177.55,273a18.75,18.75,0,1,1,18.8-18.82A18.61,18.61,0,0,1,177.55,273Z"/><path class="cls-1" d="M333.4,273a18.8,18.8,0,1,1,0-37.6c10-.08,18.61,8.61,18.63,18.83A18.86,18.86,0,0,1,333.4,273Z"/><path class="cls-1" d="M294.12,198.86c3.69,7.47,7.13,14.43,10.55,21.4,1.38,2.8,2.69,5.63,4.1,8.41.58,1.14.74,1.94-.29,3.07a31.86,31.86,0,0,0-7.79,14.55,1.64,1.64,0,0,1-2.05,1.48,2.8,2.8,0,0,0-.29,0c-2.84,0-5.93.7-8.44-.2-2.79-1-2.08-4.8-3.39-7.19A41.49,41.49,0,0,0,280,231c-.57-.59-1.43-1-.86-2.18C284.1,219,289,209.2,294.12,198.86Z"/></svg>