<svg id="Слой_1" data-name="Слой 1" xmlns="http://www.w3.org/2000/svg" viewBox="0 0 512 512"><defs><style>.cls-1{fill:#7ac043;}.cls-2{fill:#f9ae41;}.cls-3{fill:#ee4035;}.cls-4{fill:#4f91cd;}</style></defs><g id="_186-joomla" data-name="186-joomla"><path class="cls-1" d="M22.34,83A62.8,62.8,0,0,1,147.12,72.6c34.18-8,70.35.63,101.18,31.45L201.85,150.5c-21.5-21.49-44.67-17.09-58.09-3.67a38.93,38.93,0,0,0,0,54.73L248.09,305.89,202,352.34C110,260.91,149.84,300.23,97.31,247.8c-28.1-27.78-36.7-67.94-26-103.69A62.27,62.27,0,0,1,22.34,83Z"/><path class="cls-2" d="M158.13,205l46.44,46.45c10.49-10.48,94.06-94.05,104.54-104.64a38.55,38.55,0,0,1,54.42,0c13.42,13.42,17.82,36.7-3.67,58.09L406,251.37c32.71-32.71,40.37-70.88,30.3-106.11A63,63,0,1,0,365.62,74a104.12,104.12,0,0,0-103.06,26.32C243.37,120.31,188,175.25,158.13,205Z"/><path class="cls-3" d="M437.34,364.6a103.54,103.54,0,0,0-27.57-98.45c-12.38-12.79,5.24,4.93-104.33-104.54L259,208.06,363.53,312.6a38.55,38.55,0,0,1,0,54.42c-13.42,13.42-36.7,17.82-58.09-3.67l-46.13,46.44A103.66,103.66,0,0,0,367,439.15a62.84,62.84,0,1,0,70.35-74.55Z"/><path class="cls-4" d="M349,308.93l-46.13-46.45C211.6,353.07,250,315.32,198.28,367.12a38.54,38.54,0,0,1-54.41,0c-13.74-14.05-17.72-37,3.35-58.09l-46.13-46.44C69.42,294.25,61.24,331,70.16,365.66a62.85,62.85,0,1,0,75.7,75.07,104.19,104.19,0,0,0,98.77-27.26c33.65-33.56,12.79-13,104.32-104.54Z"/></g></svg>