<svg id="Слой_1" data-name="Слой 1" xmlns="http://www.w3.org/2000/svg" viewBox="0 0 512 512"><defs><style>.cls-1{fill:#0769ad;}.cls-2{fill:#fff;}</style></defs><circle id="ellipse" class="cls-1" cx="257.06" cy="255.92" r="235.5"/><g id="logo"><path class="cls-2" d="M128.55,180.68c-26,37.44-22.82,86.19-3,126,.46.92,1,1.84,1.47,2.85.28.64.65,1.2.92,1.84.19.37.37.64.56,1,.36.64.64,1.2,1,1.84.64,1.1,1.29,2.21,1.93,3.22.37.64.74,1.2,1.1,1.75.74,1.1,1.48,2.3,2.21,3.49.28.46.65,1,.92,1.48,1,1.56,2.12,3,3.22,4.6l.09.09c.19.27.37.46.56.73.92,1.29,1.93,2.58,2.94,3.87l1.1,1.38c.92,1.1,1.75,2.21,2.67,3.31.37.37.65.83,1,1.2,1.2,1.47,2.49,2.85,3.78,4.32l.09.09.18.18c1.2,1.38,2.48,2.67,3.77,4.05a15.08,15.08,0,0,0,1.2,1.2l3,3c.46.37.83.83,1.29,1.2,1.38,1.29,2.76,2.58,4.14,3.77h.09c.28.19.46.46.74.65l3.77,3.22c.55.46,1,.82,1.57,1.28,1,.83,2.11,1.66,3.12,2.49.56.46,1.11.83,1.66,1.29,1.2.82,2.3,1.74,3.5,2.57a10.21,10.21,0,0,0,1.28.92c.1.09.28.19.37.28,1.1.83,2.3,1.56,3.5,2.3.46.36,1,.64,1.47,1,1.75,1.1,3.59,2.21,5.43,3.31.46.28,1,.55,1.47.83,1.38.73,2.67,1.47,4.05,2.3l2.2,1.1c1,.46,1.94,1,2.86,1.47a2.64,2.64,0,0,1,.64.37c.37.19.83.37,1.2.55,1.47.74,3,1.48,4.6,2.12.36.18.64.28,1,.46,1.75.83,3.58,1.56,5.33,2.21.46.18.83.37,1.29.55,1.66.64,3.31,1.29,5.06,1.84.18.09.46.09.64.18,1.84.65,3.78,1.29,5.62,1.84.46.1.92.28,1.38.37a41.19,41.19,0,0,0,5.79,1.66c126,23,162.65-75.71,162.65-75.71-30.73,40-85.28,50.59-137.07,38.82q-2.91-.69-5.8-1.66a11.51,11.51,0,0,1-1.47-.46c-1.84-.55-3.68-1.19-5.52-1.84a6.67,6.67,0,0,1-.74-.27c-1.65-.65-3.31-1.2-4.87-1.84l-1.38-.56-5.34-2.2c-.37-.19-.73-.28-1-.46-1.47-.65-2.94-1.38-4.51-2.12a8.59,8.59,0,0,1-1.29-.64c-1.1-.56-2.3-1.2-3.49-1.75-.74-.37-1.57-.83-2.3-1.2-1.38-.73-2.76-1.47-4.14-2.3-.46-.27-.92-.46-1.38-.73-1.84-1.11-3.59-2.21-5.43-3.31-.46-.28-1-.65-1.47-.92-1.29-.83-2.58-1.66-3.86-2.58-.46-.28-.83-.64-1.2-.83-1.2-.83-2.39-1.75-3.59-2.67-.55-.36-1.1-.82-1.56-1.19-1.11-.83-2.21-1.66-3.31-2.58l-1.48-1.19c-1.38-1.11-2.76-2.3-4-3.41-.19-.09-.28-.27-.46-.37-1.48-1.28-2.86-2.57-4.33-3.86a14.45,14.45,0,0,1-1.19-1.1c-1-1-2.12-2-3-3l-1.19-1.19c-1.29-1.29-2.58-2.67-3.78-4.05l-.18-.19c-1.29-1.47-2.58-2.85-3.86-4.32-.37-.37-.65-.83-1-1.2-.92-1.1-1.84-2.3-2.76-3.4-.36-.37-.64-.83-1-1.29-1.1-1.38-2.11-2.85-3.22-4.23-28.7-39.19-39-93.19-16.1-137.53"/><path class="cls-2" d="M209.5,149c-18.86,27.14-17.85,63.48-3.13,92.09A121,121,0,0,0,214.74,255c2.86,4,6,8.83,9.66,12.14,1.38,1.47,2.76,2.94,4.24,4.42l1.1,1.1c1.38,1.38,2.85,2.67,4.32,4.05l.19.18h0c1.65,1.47,3.31,2.85,5.06,4.14.37.28.73.64,1.1.92l5.24,3.86c.1,0,.1.1.19.1l2.39,1.56a8.48,8.48,0,0,0,1.1.74c1.29.82,2.58,1.65,3.87,2.39a1.77,1.77,0,0,1,.55.37c1.1.64,2.3,1.28,3.5,1.93.36.18.82.46,1.19.64.83.46,1.57.83,2.39,1.29.1.09.28.09.37.18,1.66.83,3.31,1.57,5.06,2.4.37.18.74.27,1.11.46l4.14,1.65c.55.19,1.19.46,1.74.65,1.29.46,2.58.92,3.77,1.28.56.19,1.11.37,1.75.56a38.63,38.63,0,0,0,5.52,1.56c97.52,16.1,120-58.78,120-58.78C384,274,344.82,287.85,303,277c-1.84-.46-3.68-1-5.52-1.56l-1.66-.55c-1.29-.46-2.57-.83-3.86-1.38-.55-.19-1.2-.46-1.75-.65L286,271.2c-.37-.19-.74-.28-1.1-.46-1.75-.74-3.41-1.57-5.06-2.39-.83-.37-1.75-.83-2.58-1.29a11.24,11.24,0,0,0-1.47-.74c-1.11-.55-2.12-1.19-3.22-1.84a4.51,4.51,0,0,1-.74-.46c-1.28-.73-2.57-1.56-3.86-2.39-.37-.28-.83-.55-1.2-.83l-2.48-1.65c-1.84-1.2-3.5-2.58-5.24-3.87a10.68,10.68,0,0,0-1.2-.92c-18.31-14.44-32.84-34.22-39.74-56.67-7.27-23.27-5.71-49.3,6.9-70.46"/><path class="cls-2" d="M277.48,125.48c-11.13,16.37-12.23,36.61-4.5,54.74,8.09,19.22,24.74,34.22,44.25,41.3l2.39.83a4.75,4.75,0,0,1,1.1.37c1.11.36,2.3.73,3.5,1,53.72,10.39,68.26-27.6,72.21-33.21-12.78,18.4-34.22,22.81-60.53,16.37-2.12-.46-4.32-1.28-6.35-1.93a67.87,67.87,0,0,1-7.54-3.13,74.56,74.56,0,0,1-13.25-8.09c-23.55-17.85-38.17-52-22.81-79.76"/></g></svg>