<svg id="Слой_1" data-name="Слой 1" xmlns="http://www.w3.org/2000/svg" viewBox="0 0 512 512"><defs><style>.cls-1{fill:#f0db4f;}.cls-2{fill:#323330;}</style></defs><g id="_187-js" data-name="187-js"><rect class="cls-1" x="20.97" y="20.07" width="470.64" height="470.64" rx="10"/><path class="cls-2" d="M277.09,387.13c0,45.8-26.89,66.71-66.08,66.71-35.4,0-55.89-18.28-66.39-40.45l36-21.75c6.93,12.3,13.24,22.69,28.47,22.69,14.5,0,23.74-5.67,23.74-27.83V236.16h44.23v151Z"/><path class="cls-2" d="M381.73,453.84c-41.08,0-67.66-19.55-80.58-45.18l36-20.8c9.46,15.44,21.85,26.89,43.6,26.89,18.28,0,30-9.13,30-21.84,0-15.13-12-20.49-32.25-29.42l-11-4.73c-31.93-13.55-53.05-30.67-53.05-66.71,0-33.19,25.32-58.41,64.71-58.41,28.16,0,48.33,9.77,62.83,35.41l-34.46,22.06C400,277.56,391.81,272.2,379.1,272.2c-12.92,0-21.12,8.19-21.12,18.91,0,13.24,8.2,18.59,27.21,26.89l11,4.73C433.83,338.8,455,355.3,455,392.28c0,39.7-31.31,61.56-73.22,61.56Z"/></g></svg>