<svg id="Слой_1" data-name="Слой 1" xmlns="http://www.w3.org/2000/svg" viewBox="0 0 512 512"><defs><style>.cls-1{fill:#f35045;}</style></defs><path class="cls-1" d="M315.56,402.86c3.67,5.3,5.91,4.89,8.77,3.67S474,355.74,478.53,354.11s3.06-3.06,1.63-5.3-50.38-68.74-52.83-72.62-3.67-3.06-7.54-1.83L264.11,314.87s47.78,82.68,51.45,88Z"/><path class="cls-1" d="M491,335.15V257.32l-48.41,12.89c13.19,17.65,33.82,45.28,48.41,64.94Z"/><path class="cls-1" d="M442.41,174.35c-2.4.54-55.53,10.15-58.8,10.58s-2.18,2.29-.87,4.15l46.75,64.14s57.16-14.18,60.65-14.94l.83-.2v-8.49c-10.39-13.18-38.7-49.05-41.14-52.4-2.95-4-5-3.38-7.42-2.84Z"/><path class="cls-1" d="M108.14,73.59c11.51-.52,12.56,2.1,17.61,9.59l127,212.29,159.66-38.25c-8.85-12.54-49-69.47-52.89-74.91-4.36-6.11.11-8.94,7.2-10.14s68.18-11.46,73.42-12.22,9.38-2.62,17.89,7.64c4.35,5.24,19.11,23.62,33,40.85v-99.3q0-36.4-25.85-62.26T402.86,21H109.14q-36.4,0-62.26,25.85A86.73,86.73,0,0,0,25.74,80c28.78-2.37,74.35-6.06,82.4-6.43Z"/><path class="cls-1" d="M330,431.43c-13.46,4.08-19.5,6.1-28.27-6.14-6.57-9.16-42.09-73.14-59.5-104.68-33,8.64-93.28,24.38-110.68,28.56-17,4.08-24.23-6.1-27-12.37C102.54,332.4,52.77,225.09,21,156.23V402.86q0,36.4,25.85,62.26T109.14,491H402.86q36.4,0,62.26-25.85T491,402.86v-29C454.92,387.08,339,428.68,330,431.43Z"/><path class="cls-1" d="M131.93,324.45c4.77-1.09,94.19-22.49,96.1-22.9s3.14-1.5,1.09-5.05S109.92,90.74,109.92,90.74c-1.08-1.86-.77-2.47-3.71-2.32-2.62.14-68.91,6-84.26,7.34a94.31,94.31,0,0,0-.84,9.78c15.58,31.9,105,216.32,105.5,217.82s.55,2.18,5.32,1.09Z"/></svg>