<svg id="Слой_1" data-name="Слой 1" xmlns="http://www.w3.org/2000/svg" viewBox="0 0 512 512"><defs><style>.cls-1{fill:#05638b;}.cls-2{fill:#03628b;}.cls-3{fill:#e38f02;}.cls-4{fill:#04638b;}</style></defs><path class="cls-1" d="M487.33,415.89c-3.2-2.7-6.39-5.41-9.61-8.09-11.93-9.93-25.66-16.69-39.52-23.45-15.61-7.6-29.91-17.24-39.62-32.31-2-3.09-2.82-6.68-4.8-9.75a2.07,2.07,0,0,1,.61-2.67,8.87,8.87,0,0,1,2.83-2c9.66-3.1,19.07-7.12,29.24-8.37a188.24,188.24,0,0,1,26.43-1.51,10.34,10.34,0,0,0,1.47,0c.81-.1,1.89.47,2.34-.63s-.42-1.68-.91-2.35a19.76,19.76,0,0,0-5.35-5c-12.83-8-24.69-17.38-37.55-25.3-8.48-5.22-18.13-7.68-27.4-11-5.41-1.94-11-3.28-16.21-5.92a14.77,14.77,0,0,1-5.46-4.78c-6.64-9.33-11.21-19.74-15.93-30.1-6.46-14.17-13.09-28.26-19.71-42.36-3.2-6.84-5-14.22-8.53-20.94-20.95-40.29-50.58-72.54-89.37-96.25A148.09,148.09,0,0,0,196,67.35a54.84,54.84,0,0,0-11.57-1.79c-6.54-.56-13.09-1-19.64-1.39-3.26-.21-5.65-2.11-7.94-4.11C145,49.77,131,43.59,116.38,38.64c-2.47-.84-5.14-1.53-7.8-1-5.62,1.22-8.29,6.23-6.45,12,2.22,7,6.58,12.63,11,18.28,8,10.27,16.21,20.47,21.08,32.79,3.35,8.48,5.94,17.22,8.65,25.91,3.64,11.65,8.16,22.88,15.27,32.92a29,29,0,0,0,4.9,5.46c6.45,5.48,7.47,12.14,5,19.95-2.44,7.65-5.86,15-7.68,22.81a121.34,121.34,0,0,0-2.49,38.29A102.58,102.58,0,0,0,167.45,282c2.19,4.56,4.78,8.83,9.74,11,2.82,1.21,3.51.67,3.93-2.42,1.43-10.78,2-21.67,5-32.23A44.61,44.61,0,0,1,195,241.54c1.69-2,3.35-4.11,4.87-6.27,1.29-1.83,2.19-1.66,3,.27,1.56,3.69,2.43,7.61,4,11.34a347,347,0,0,0,42.44,74.4,84.36,84.36,0,0,0,16,16.8,5.2,5.2,0,0,1,2.16,2.54,16.23,16.23,0,0,1-6-3.82c-8.73-9.22-19-16.67-28.31-25.28a113.74,113.74,0,0,1-27.38-38.93c-.69-1.62-1.52-3.18-2.35-4.73-.3-.55-.34-1.5-1.26-1.39s-.88.94-1,1.61c-1.17,7-2.64,13.86-3.31,20.91a33.78,33.78,0,0,1-2,8.86c-4,10.35-15.43,13.58-24.67,6.86-7-5.1-11.56-12.24-15.28-19.87-6.92-14.18-9.56-29.37-10.15-45-.56-14.86,2.06-29.28,6.27-43.47,1.3-4.4,1.62-9.07,3.36-13.37,2.34-5.8,2.16-6.18-2.39-10.74-6-6-9.67-13.57-13.18-21.1a282.3,282.3,0,0,1-16.09-44.41c-2-7.44-6.8-13.4-11.15-19.57-5.59-7.94-12.23-15.1-17.39-23.36a37.16,37.16,0,0,1-5.86-16.19c-.71-7.6,4-19.64,15-22.78,8.61-2.45,17-.71,25.05,2.11,12.92,4.5,25.11,10.45,35.46,19.64a14.48,14.48,0,0,0,8.91,3.77c5.77.46,11.61,0,17.31,1.19,15.12,3,29.55,7.56,42.8,16,22.17,14.16,43.3,29.53,61,49.07,17.08,18.79,32.77,38.71,42.52,62.42,7.91,19.23,16.31,38.2,25.57,56.81q5.82,11.72,11.61,23.44a15.41,15.41,0,0,0,9.28,7.94c24.29,8.67,45.51,22.48,65.38,38.73,9,7.38,17.48,15.12,24.26,24.64,1.88,2.64,1.68,3.41-1.46,4.45a128.38,128.38,0,0,1-29.58,5.79c-6.54.57-12.73,3-19.11,4.44-1.05.24-2.11.43-3.16.64-4.31.87-4.52,1.3-1.84,4.95,4.35,5.93,10.51,9.71,16.73,13.23a134,134,0,0,1,40.68,34.7,25.4,25.4,0,0,0,4.32,4.41C484.13,406.44,486,410.87,487.33,415.89Z"/><path class="cls-2" d="M112,406.53,94.4,445.7c-2.05,4.57-4.13,9.12-6.12,13.71-2.66,6.18-7.65,8.25-14,8.22s-11.2-2.16-13.93-8.32c-7.48-16.85-15.08-33.65-22.64-50.48A6.92,6.92,0,0,0,36,406.29V409c0,18.27,0,36.54.05,54.81,0,2.14-.45,2.93-2.72,2.79-3.43-.21-6.88-.13-10.31,0-1.72,0-2.39-.35-2.39-2.26.08-19.93,0-39.87.08-59.81,0-4.9,2.11-7.66,6.69-9.26a27.3,27.3,0,0,1,10.1-1.73c6.57.27,11.25,3.38,13.89,9.58,7,16.42,14.13,32.78,21.21,49.17.39.89.82,1.77,1.43,3.06l8.52-19q7.36-16.53,14.74-33.06c3.28-7.35,9-10.51,17-9.5.59.08,1.18.09,1.76.2,9.43,1.78,12.1,4.27,12,13.72-.2,18.66-.1,37.32,0,56,0,2.23-.44,3.14-2.86,3a85.71,85.71,0,0,0-10,0c-2.14.11-2.59-.67-2.58-2.67.07-18.07,0-36.14,0-54.21v-3.11Z"/><path class="cls-3" d="M373.75,463.8l14.88,13.54c-3.9,0-7.08-.32-10.17.07-5.54.7-9.94-1-13.4-5.27-.31-.38-.79-.62-1.07-1-3.59-5-8.58-4.92-14.1-4.57-9.56.62-19.2,1.28-28.72-.73A24.31,24.31,0,0,1,312,462a13.81,13.81,0,0,1-6.21-11.73q0-19.29,0-38.58A13.68,13.68,0,0,1,313,399.31a29.75,29.75,0,0,1,14.88-4.08c10.89-.17,21.79-.15,32.68,0A30,30,0,0,1,374.9,399c5,2.82,7.72,7.07,7.71,12.94,0,12.57-.06,25.13,0,37.69,0,6.07-2.18,10.66-7.83,13.33A6.14,6.14,0,0,0,373.75,463.8Zm-37.81-18.12.25-.67a32.59,32.59,0,0,0,5.23,0c8.24-1.32,14.77,1.29,20.13,7.73,2.59,3.11,4.7,2.38,6.27-1.47a10.35,10.35,0,0,0,.51-4.05v-32.1c0-5.92-2.31-8.79-8.2-9.37-9.29-.91-18.62-.41-27.94-.24a14.14,14.14,0,0,0-4.86,1.06c-3.05,1.2-5,3.32-5,6.88,0,11.49,0,23,0,34.46,0,3.87,1.89,6.74,5.54,7.82,6.27,1.86,12.69.58,19,.95l.16-.72Z"/><path class="cls-4" d="M214.79,445.77c0,8.24-.13,16.49,0,24.73.15,7.08-3.2,11.73-9.4,14.55a34.16,34.16,0,0,1-14.24,3.2c-15.61,0-31.22,0-46.82.05-2.14,0-3.32-.3-3-2.8s-1-5.61.59-7c1.4-1.18,4.49-.42,6.84-.42q19.57,0,39.16,0a28.05,28.05,0,0,0,4.1-.27c6.15-.94,8.48-4.43,7.18-10.45-.37-1.71-1.6-1.16-2.53-1.16-8.93,0-17.87-.08-26.8,0-5.71,0-11.37-.21-16.84-2.1a22.48,22.48,0,0,1-8.35-4.81,11.32,11.32,0,0,1-3.71-8.63q.1-15.62,0-31.22c0-1.94.35-2.82,2.54-2.71,3.53.18,7.07.15,10.6,0,1.9-.08,2.28.62,2.27,2.36-.08,9.82,0,19.63,0,29.45,0,5.71,1.75,8.1,7.51,8.28,11.28.33,22.57.11,33.86.15,2.23,0,1.55-1.61,1.56-2.71,0-11.49.11-23,0-34.45,0-2.63.66-3.43,3.26-3.24a63,63,0,0,0,9.42,0c2.46-.18,2.91.81,2.88,3-.11,8.73,0,17.47,0,26.21Z"/><path class="cls-3" d="M270.06,394.92c7.85,0,15.71.05,23.57,0,2,0,2.72.41,2.72,2.57,0,7.77.09,7.77-7.77,7.77q-17.54,0-35.06,0c-10,0-11.22,1.28-11.18,11.15,0,6.68,2.56,9.36,9.21,9.45,6.87.1,13.75-.08,20.62.07,6.36.14,12.46,1.47,17.9,5,3.82,2.5,5.95,5.85,5.69,10.57-.14,2.75-.1,5.51,0,8.25.17,5.33-2.18,9.24-6.58,12a28.24,28.24,0,0,1-15,4.69c-15,.12-30.05.06-45.07.13-1.55,0-2.22-.29-2.28-2.08-.26-8.09-.32-8.09,7.74-8.09,11.2,0,22.39,0,33.59,0a32.45,32.45,0,0,0,5.56-.48c4.42-.81,6.37-3.24,6.39-7.68,0-2-.07-3.94,0-5.9.14-3.15-1.57-5-4.29-5.94a26.54,26.54,0,0,0-8.41-1.19c-7.35-.21-14.73.57-22.05-.56a29.4,29.4,0,0,1-13.09-4.95c-3.48-2.51-5.47-5.8-5.27-10.25.11-2.65,0-5.3,0-8,0-6.38,3.06-10.68,8.7-13.49,6-3,12.53-2.95,19-3.06C259.84,394.85,265,394.92,270.06,394.92Z"/><path class="cls-3" d="M392.51,423.27c0-8.45.1-16.89-.07-25.33-.05-2.54.77-3.18,3.15-3a59.15,59.15,0,0,0,8.83,0c2.76-.22,3.65.53,3.61,3.48-.16,15.7-.07,31.41-.07,47.11,0,8.29,2.11,10.6,10.55,10.85,7,.2,13.94.06,20.91.06,6.38,0,12.76.06,19.14,0,1.9,0,2.76.29,2.77,2.51,0,7.66.11,7.67-7.6,7.66-12.18,0-24.35,0-36.52-.11a38.26,38.26,0,0,1-14.33-2.92c-6.93-2.85-10.4-8-10.38-15.53Q392.53,435.64,392.51,423.27Z"/><path class="cls-1" d="M169.65,92.54c10.83-4.07,17.1,1.85,20.5,10.36,1.35,3.39-1.49,10.44-4.47,12.79-.94.74-1.45.79-1.94-.39-.61-1.44-1.35-2.83-2-4.27a44.39,44.39,0,0,0-9.12-13.9A14.76,14.76,0,0,1,169.65,92.54Z"/><path class="cls-3" d="M480,444.67a11.29,11.29,0,0,1,11.4,11.39A11.42,11.42,0,1,1,480,444.67Zm8.94,11.23a8.94,8.94,0,0,0-9.26-8.93,8.81,8.81,0,0,0-8.6,9.24,9,9,0,0,0,8.92,9A9.09,9.09,0,0,0,488.93,455.9Z"/><path class="cls-3" d="M485.13,462.09c-1.48.57-2.22.24-2.78-.81s-1.34-2.16-2-3.26a1.8,1.8,0,0,0-2.2-1c-1.09.29-.55,1.28-.75,2-.33,1.14.92,3.28-1.07,3.23-1.66,0-.73-2.07-.8-3.18-.14-2.44.07-4.9-.08-7.33-.11-1.87.62-2.4,2.36-2.27a22.17,22.17,0,0,1,4.94.45,3,3,0,0,1,2.38,2.64c.17,1.43.11,3-1.36,3.55-2.05.76-1.57,1.66-.64,2.93C483.85,459.93,484.42,461,485.13,462.09Zm-5.78-6.89c1.87-.09,3.65,0,3.62-2s-1.85-1.79-3.27-1.92-2.31.18-2.3,2S478.33,455.33,479.35,455.2Z"/></svg>