<svg id="Слой_1" data-name="Слой 1" xmlns="http://www.w3.org/2000/svg" viewBox="0 0 512 512"><defs><style>.cls-1{fill:#d40101;}.cls-2{fill:#fefcfc;}.cls-3{fill:#fdfbfb;}</style></defs><path class="cls-1" d="M20.63,324.67V157.82l20.92,0c1,0,1.91.12,2.86.12q47.06,0,94.1,0l141.4,0H420.27c9.75,0,19.5-.08,29.26-.12l41.84,0V324.67l-.52.09-9.93,0h-136l-10.43,0a83.61,83.61,0,0,0-10.5,0l-10.43,0H261.22a26.74,26.74,0,0,1-2.84-.13c-2-.31-2.56.49-2.42,2.42.19,2.67.11,5.36.15,8V345.6c-.56,2.82.62,5.76-.63,8.53l-.53,0-4.16,0a79.83,79.83,0,0,0-10.49,0,80.67,80.67,0,0,0-10.43,0,79.83,79.83,0,0,0-10.49,0,80.82,80.82,0,0,0-10.44,0,79.83,79.83,0,0,0-10.49,0,80.67,80.67,0,0,0-10.43,0,79.83,79.83,0,0,0-10.49,0,80.67,80.67,0,0,0-10.43,0,80,80,0,0,0-10.5,0c-2.33,0-4.65-.14-7-.12-1.12,0-1.5-.38-1.49-1.5,0-2.33-.08-4.65-.12-7a81.6,81.6,0,0,0,0-10.49,74.18,74.18,0,0,0,0-9.89c0-.68-.4-.56-.82-.48l-1,0H72.92l-10.43,0a83.61,83.61,0,0,0-10.5,0l-10.43,0H31.08l-9.93,0Zm363-137.31q-37.92,0-75.84-.05c-2.08,0-2.8.38-2.8,2.66q.12,51.39,0,102.77c0,2.09.58,2.59,2.61,2.58,14.47-.08,28.94-.11,43.41,0,2.57,0,3.13-.67,3.12-3.16-.1-24.32,0-48.64-.11-73,0-2,.49-2.48,2.45-2.45q12,.16,24.06,0c2.31,0,3.05.48,3,3-.11,24.32,0,48.64-.12,73,0,2,.42,2.68,2.56,2.64q12-.19,24.05,0c2.26,0,2.91-.45,2.9-2.83-.1-24.32,0-48.64-.11-73,0-2.1.42-2.82,2.67-2.77,7.84.14,15.69.16,23.53,0,2.54,0,3.33.46,3.32,3.2-.13,24.15-.05,48.29-.12,72.44,0,2.16.31,3.07,2.79,3,4.7-.24,9.42-.22,14.12,0,2.33.1,2.87-.57,2.86-2.87q-.12-51.14,0-102.25c0-2.59-.89-2.91-3.1-2.9Q421.3,187.41,383.64,187.36ZM177.54,256c0,22,0,44.09,0,66.14,0,2,.45,2.63,2.56,2.62q22-.15,43.92,0c2.23,0,2.71-.66,2.68-2.78-.13-8.1,0-16.21-.1-24.31,0-2,.57-2.42,2.48-2.4,14.64.08,29.28,0,43.92.09,2.21,0,2.72-.64,2.72-2.76q-.1-51.24,0-102.48c0-2.12-.47-2.79-2.69-2.78q-46.41.1-92.82,0c-2.23,0-2.69.67-2.68,2.77C177.57,212,177.54,234,177.54,256Zm-29.38-14.51c0-17.25,0-34.51,0-51.76,0-1.77-.39-2.39-2.28-2.38q-46.78.08-93.58,0c-1.77,0-2.37.4-2.36,2.29q.09,51.63,0,103.25c0,2,.53,2.47,2.48,2.46,14.47-.08,28.93-.1,43.39,0,2.53,0,3.35-.44,3.33-3.21-.13-24.22,0-48.44-.13-72.67,0-2.2.6-2.73,2.75-2.69,7.92.13,15.86.16,23.78,0,2.44,0,3,.67,3,3-.08,24.31,0,48.62-.09,72.93,0,2,.42,2.71,2.56,2.63,4.88-.17,9.77-.17,14.64,0,2.14.08,2.57-.63,2.56-2.63C148.12,275.62,148.15,258.54,148.16,241.46Z"/><path class="cls-2" d="M383.64,187.36q37.67,0,75.32,0c2.21,0,3.11.31,3.1,2.9q-.15,51.12,0,102.25c0,2.3-.53,3-2.86,2.87-4.7-.21-9.42-.23-14.12,0-2.48.12-2.8-.79-2.79-3,.07-24.15,0-48.29.12-72.44,0-2.74-.78-3.25-3.32-3.2-7.84.17-15.69.15-23.53,0-2.25-.05-2.67.67-2.67,2.77.08,24.32,0,48.64.11,73,0,2.38-.64,2.87-2.9,2.83q-12-.21-24.05,0c-2.14,0-2.56-.65-2.56-2.64.07-24.32,0-48.64.12-73,0-2.48-.73-3-3-3q-12,.19-24.06,0c-2,0-2.46.48-2.45,2.45.07,24.32,0,48.64.11,73,0,2.49-.55,3.18-3.12,3.16-14.47-.14-28.94-.11-43.41,0-2,0-2.62-.49-2.61-2.58q.11-51.39,0-102.77c0-2.28.72-2.66,2.8-2.66Q345.72,187.42,383.64,187.36Z"/><path class="cls-2" d="M177.54,256c0-22,0-43.93,0-65.89,0-2.1.45-2.78,2.68-2.77q46.41.1,92.82,0c2.22,0,2.69.66,2.69,2.78q-.1,51.24,0,102.48c0,2.12-.51,2.77-2.72,2.76-14.64-.1-29.28,0-43.92-.09-1.91,0-2.51.39-2.48,2.4.12,8.1,0,16.21.1,24.31,0,2.12-.45,2.79-2.68,2.78q-22-.17-43.92,0c-2.11,0-2.57-.6-2.56-2.62C177.57,300.06,177.54,278,177.54,256Zm49.07-14.67c0,7.39,0,14.79,0,22.19,0,1.7.23,2.41,2.2,2.38,8.35-.12,16.71-.09,25.07,0,1.69,0,2.2-.43,2.19-2.17q-.09-22.32,0-44.66c0-1.6-.28-2.27-2.1-2.25q-12.66.15-25.33,0c-1.63,0-2,.45-2,2.05C226.66,226.32,226.61,233.81,226.61,241.3Z"/><path class="cls-3" d="M148.15,241.46c0,17.08,0,34.16,0,51.24,0,2-.42,2.71-2.56,2.63-4.87-.17-9.76-.17-14.64,0-2.14.08-2.56-.63-2.56-2.63.06-24.31,0-48.62.09-72.93,0-2.34-.52-3.06-3-3-7.92.17-15.86.14-23.78,0-2.15,0-2.75.49-2.75,2.69.09,24.23,0,48.45.13,72.67,0,2.77-.8,3.23-3.33,3.21-14.46-.12-28.92-.1-43.39,0-1.95,0-2.48-.48-2.48-2.46q.1-51.63,0-103.25c0-1.89.59-2.29,2.36-2.29q46.79.08,93.58,0c1.89,0,2.29.61,2.28,2.38C148.13,207,148.16,224.21,148.15,241.46Z"/><path class="cls-1" d="M226.61,241.3c0-7.49,0-15,0-22.46,0-1.6.39-2.07,2-2.05q12.68.12,25.33,0c1.82,0,2.11.65,2.1,2.25q-.09,22.33,0,44.66c0,1.74-.5,2.19-2.19,2.17-8.36-.08-16.72-.11-25.07,0-2,0-2.22-.68-2.2-2.38C226.66,256.09,226.61,248.69,226.61,241.3Z"/></svg>