<svg id="Слой_1" data-name="Слой 1" xmlns="http://www.w3.org/2000/svg" viewBox="0 0 512 512"><defs><style>.cls-1{fill:#41b683;}.cls-2{fill:#35495e;}</style></defs><path class="cls-1" d="M256.15,422.85H22.51c-1,0-1.27-.29-.7-1.24,1.65-2.78,3.24-5.59,4.85-8.39,2.18-3.77,4.34-7.56,6.54-11.31,2.51-4.29,5.1-8.53,7.59-12.83,4.9-8.45,9.74-16.94,14.63-25.41,2.51-4.34,5.13-8.61,7.59-13,3.62-6.45,7.47-12.77,11-19.29,2.94-5.5,6.19-10.83,9.37-16.2,2.86-4.84,5.68-9.7,8.51-14.55,3.37-5.79,6.74-11.59,10-17.43,2.28-4,4.65-8,7-12,2.73-4.75,5.44-9.51,8.17-14.26q4.59-8,9.19-16,5.37-9.24,10.77-18.45c3.73-6.38,7.49-12.75,11.2-19.14,4.51-7.78,9-15.58,13.48-23.36q8.11-14,16.26-28c3.93-6.8,7.81-13.64,11.75-20.44,3.16-5.46,6.38-10.89,9.54-16.35,4.31-7.45,8.58-14.92,12.87-22.38.59-1,1.19-2,1.8-3,.46-.75.78-.9,1.32.06,3.39,6,6.85,11.92,10.29,17.86s7,12,10.43,18c4.51,7.82,9,15.66,13.5,23.48,3.91,6.76,7.87,13.49,11.78,20.25,3.58,6.19,7.11,12.41,10.68,18.61q3.54,6.15,7.1,12.27c1,1.7,1.24,1.71,2.26,0,2.86-4.92,5.71-9.87,8.55-14.81q4.8-8.31,9.59-16.64,8.07-14,16.12-28.09c1.78-3.08,3.65-6.1,5.43-9.18.63-1.08,1.07-.81,1.57.06q7.83,13.6,15.66,27.22c4.54,7.85,9.14,15.67,13.68,23.53,5.34,9.23,10.62,18.5,15.94,27.73q6,10.44,12.1,20.84,8.6,14.86,17.18,29.75c3.95,6.84,7.83,13.72,11.79,20.55,4.53,7.84,9.13,15.65,13.68,23.48s9,15.54,13.46,23.31q8.17,14.16,16.37,28.3,6.69,11.55,13.39,23.08c3.49,6,7,12,10.47,18Q483,409,489.71,420.8c1.19,2.06,1.18,2.06-1.18,2.06H256.15Zm24-.48H406.24c1,0,1.34-.26.74-1.25-1.3-2.15-2.54-4.34-3.79-6.52q-4.87-8.43-9.74-16.88c-2.22-3.83-4.48-7.63-6.69-11.47-3.19-5.56-6.33-11.15-9.54-16.69-3.39-5.86-6.87-11.67-10.25-17.53-3.2-5.55-6.25-11.19-9.51-16.71-3.42-5.77-6.75-11.6-10.07-17.43-2.38-4.18-4.8-8.34-7.22-12.51q-5.71-9.88-11.47-19.75-6.37-11-12.75-22c-3.11-5.38-6.19-10.79-9.31-16.17s-6.15-10.57-9.24-15.84c-2.89-4.91-5.61-9.91-8.58-14.78-2.65-4.35-5.09-8.82-7.63-13.23-.81-1.41-1.47-1.38-2.32.06-.19.32-.28.7-.46,1-5.06,8.68-10.2,17.32-15.16,26.05q-4.68,8.23-9.41,16.42c-5.25,9.12-10.37,18.31-15.73,27.36-2.72,4.59-5.34,9.23-8.06,13.82-3.82,6.41-7.42,12.94-11.14,19.41-2.79,4.85-5.66,9.66-8.4,14.55-3.72,6.65-7.63,13.2-11.48,19.79-2.82,4.85-5.69,9.67-8.5,14.53-3.81,6.59-7.56,13.22-11.37,19.81-3.55,6.16-7.17,12.28-10.72,18.44S161.53,407,158.06,413c-1.52,2.63-3.1,5.22-4.45,7.94-.43.87-.42,1.48.8,1.42.28,0,.56,0,.84,0Z"/><path class="cls-2" d="M280.18,422.37H155.25c-.28,0-.56,0-.84,0-1.22.06-1.23-.55-.8-1.42,1.35-2.72,2.93-5.31,4.45-7.94,3.47-6,6.9-12.11,10.38-18.15s7.17-12.28,10.72-18.44c3.81-6.59,7.56-13.22,11.37-19.81,2.81-4.86,5.68-9.68,8.5-14.53,3.85-6.59,7.76-13.14,11.48-19.79,2.74-4.89,5.61-9.7,8.4-14.55,3.72-6.47,7.32-13,11.14-19.41,2.72-4.59,5.34-9.23,8.06-13.82,5.36-9,10.48-18.24,15.73-27.36q4.71-8.21,9.41-16.42c5-8.73,10.1-17.37,15.16-26.05.18-.32.27-.7.46-1,.85-1.44,1.51-1.47,2.32-.06,2.54,4.41,5,8.88,7.63,13.23,3,4.87,5.69,9.87,8.58,14.78q4.64,7.9,9.24,15.84c3.12,5.38,6.2,10.79,9.31,16.17q6.36,11,12.75,22,5.74,9.87,11.47,19.75c2.42,4.17,4.84,8.33,7.22,12.51,3.32,5.83,6.65,11.66,10.07,17.43,3.26,5.52,6.31,11.16,9.51,16.71,3.38,5.86,6.86,11.67,10.25,17.53,3.21,5.54,6.35,11.13,9.54,16.69,2.21,3.84,4.47,7.64,6.69,11.47q4.88,8.43,9.74,16.88c1.25,2.18,2.49,4.37,3.79,6.52.6,1,.23,1.26-.74,1.25H280.18Z"/></svg>