<svg id="Слой_1" data-name="Слой 1" xmlns="http://www.w3.org/2000/svg" xmlns:xlink="http://www.w3.org/1999/xlink" viewBox="0 0 512 512"><defs><style>.cls-1,.cls-2,.cls-3,.cls-4,.cls-7,.cls-8{fill-rule:evenodd;}.cls-1{fill:url(#Безымянный_градиент_2);}.cls-2{fill:url(#Безымянный_градиент_2-2);}.cls-3{fill:url(#Безымянный_градиент_3);}.cls-4{fill:url(#Безымянный_градиент_4);}.cls-5{fill:#eaadcc;}.cls-10,.cls-11,.cls-6{fill:none;stroke-linecap:round;}.cls-6{stroke:#000;stroke-linejoin:round;stroke-width:6px;}.cls-8,.cls-9{fill:#fff;}.cls-9{stroke:#fff;stroke-width:3px;}.cls-10{stroke:#ecb732;}.cls-10,.cls-11{stroke-width:11px;}.cls-11{stroke:#ffc73b;}</style><linearGradient id="Безымянный_градиент_2" x1="2.22" y1="512.59" x2="2.09" y2="512.17" gradientTransform="matrix(91.59, -71.56, -121.33, -155.3, 62138.84, 79849.67)" gradientUnits="userSpaceOnUse"><stop offset="0" stop-color="#52ce63"/><stop offset="1" stop-color="#51a256"/></linearGradient><linearGradient id="Безымянный_градиент_2-2" x1="2.28" y1="513.29" x2="2.15" y2="512.86" gradientTransform="matrix(71.6, 91.65, 155.3, -121.33, -79452.42, 62215.56)" xlink:href="#Безымянный_градиент_2"/><linearGradient id="Безымянный_градиент_3" x1="2.44" y1="512.96" x2="2.44" y2="512.38" gradientTransform="matrix(102.23, 12.55, 26.32, -214.39, -13470.21, 109964.96)" gradientUnits="userSpaceOnUse"><stop offset="0" stop-color="#8ae99c"/><stop offset="1" stop-color="#52ce63"/></linearGradient><linearGradient id="Безымянный_градиент_4" x1="1.85" y1="512.77" x2="1.79" y2="511.96" gradientTransform="matrix(301, 0, 0, -333, -300, 170974)" gradientUnits="userSpaceOnUse"><stop offset="0" stop-color="#ffe56c"/><stop offset="1" stop-color="#ffc63a"/></linearGradient></defs><path class="cls-1" d="M242.49,248.86c31.83-30.32,22.12-67.82-6.71-113.27S148.93,74,138.11,84.29s-13.23,84.05,15.6,129.5,56.95,65.4,88.78,35.07Z"/><path class="cls-2" d="M270,253.06c23.55,37.12,55,23.55,94-13.57s55.11-108.23,47.11-120.86-68.87-12-107.83,25.13S246.46,215.94,270,253.06Z"/><path class="cls-3" d="M257.14,232.64c39.09,4.8,54.47-31.32,61.64-89.7S296.39,22.84,283.1,21.21s-58,51-65.14,109.35S218,227.84,257.14,232.64Z"/><path class="cls-4" d="M247.29,490.83c82,0,148.45-23.82,148.45-131.8s-66.48-196.6-148.45-196.6S98.9,251,98.9,359,165.32,490.83,247.29,490.83Z"/><ellipse class="cls-5" cx="322.27" cy="327.12" rx="21.2" ry="9.86"/><ellipse class="cls-5" cx="166.45" cy="321.2" rx="9.86" ry="21.2" transform="translate(-172.64 447.27) rotate(-83)"/><path class="cls-6" d="M260.87,323.63A28.56,28.56,0,0,1,238.76,330q-12.54-1.43-18.59-10.41"/><path class="cls-7" d="M178.76,272.31A21.2,21.2,0,1,1,164,279,21.12,21.12,0,0,1,178.76,272.31Z"/><path class="cls-8" d="M179.87,290a6.9,6.9,0,1,0-6.65,7.14A6.91,6.91,0,0,0,179.87,290Z"/><path class="cls-7" d="M307.23,277.69a21.2,21.2,0,1,1-14.77,6.73A21.12,21.12,0,0,1,307.23,277.69Z"/><path class="cls-9" d="M197.73,292.86a18.24,18.24,0,1,1-18.87-17.6A18.23,18.23,0,0,1,197.73,292.86Zm5.92-.21a24.16,24.16,0,1,0-23.31,25A24.17,24.17,0,0,0,203.65,292.65Z"/><path class="cls-9" d="M326.2,298.24a18.24,18.24,0,1,1-18.87-17.6A18.23,18.23,0,0,1,326.2,298.24Zm5.92-.21a24.16,24.16,0,1,0-23.31,25A24.17,24.17,0,0,0,332.12,298Z"/><path class="cls-8" d="M308.34,295.41a6.9,6.9,0,1,0-6.66,7.14A6.91,6.91,0,0,0,308.34,295.41Z"/><path class="cls-10" d="M134.89,369l73,75.94"/><path class="cls-10" d="M198,377.91l-46.35,49.31"/><path class="cls-10" d="M358.75,369l-73,75.94"/><path class="cls-10" d="M295.64,377.91,342,427.22"/><path class="cls-11" d="M276.9,201.38l-48.32,48.33"/><path class="cls-11" d="M267,249.71l-48.32-48.33"/></svg>