<svg id="Слой_1" data-name="Слой 1" xmlns="http://www.w3.org/2000/svg" viewBox="0 0 512 512"><defs><style>.cls-1{fill:#6181b6;}.cls-2{fill:#f5f5f6;}</style></defs><path class="cls-1" d="M254.86,375c-43.09-.56-86.56-5.84-128.64-20-25.79-8.67-50.17-20.09-71.3-37.6-11.67-9.66-21.58-20.82-27.85-34.79-9.73-21.67-7.44-42.52,5-62.43,10-16.06,24.14-27.92,39.91-37.95,24.13-15.33,50.58-25.16,78.12-32.25A392.31,392.31,0,0,1,214,139.17c16.79-1.45,33.6-2.51,50.45-2,44.78,1.29,88.71,7.51,130.92,23.25,22.24,8.3,43.26,18.86,61.65,34.12,11.74,9.74,21.74,20.94,28,35,9.69,21.7,7.31,42.54-5.12,62.43-9.87,15.78-23.7,27.54-39.21,37.43-27.26,17.37-57.28,27.85-88.58,35A407.16,407.16,0,0,1,282.67,374C273.77,374.43,264.88,375,254.86,375ZM366.79,198.65v-.12c-9.6,0-19.2.07-28.8-.06-2.16,0-2.84.76-3.21,2.73-2.18,11.83-4.46,23.64-6.73,35.45q-8.62,44.8-17.29,89.59c-.46,2.37.36,2.83,2.53,2.8,7.44-.11,14.89-.14,22.34,0,2.3.05,3-.78,3.31-2.93,1.78-10.9,3.85-21.76,5.57-32.68.41-2.6,1.46-3,3.79-3,12.15.08,24.31.39,36.44-.11,13.1-.55,24.53-5.35,33.43-15.42,10.68-12.09,15.16-26.38,14.6-42.2-.44-12.63-6.11-22.52-17.49-28.65a45.61,45.61,0,0,0-20.57-5.34C385.41,198.47,376.1,198.65,366.79,198.65ZM148,198.58v-.05c-9.7,0-19.39.05-29.09,0-1.89,0-2.82.43-3.08,2.44-.4,3-1.07,6-1.65,8.94q-11.2,58.32-22.46,116.63c-.41,2.08,0,2.55,2,2.53q11.61-.12,23.21,0c1.82,0,2.5-.55,2.81-2.42,1.81-11,3.89-21.95,5.63-32.95.42-2.66,1.41-3.27,3.93-3.25,12.54.09,25.09.39,37.6-.18,10.48-.47,20.19-4,28.05-11.26,14.21-13.12,19.88-29.72,18.55-48.7-.76-10.78-6-19.32-15.33-25.07-7.45-4.59-15.71-6.45-24.36-6.59S156.57,198.58,148,198.58Zm143,91.89c4,0,8-.06,12,0,1.54,0,2.26-.4,2.51-2,.51-3.29,1.28-6.53,1.92-9.79,3.32-16.89,6.77-33.75,9.9-50.67,2.19-11.88-2.24-20.52-12.42-25.16a49.91,49.91,0,0,0-19.69-4.17q-13.81-.31-27.63-.08c-2.89,0-3.23-1-2.74-3.43,1.9-9.39,3.62-18.82,5.55-28.21.47-2.26.26-3.13-2.35-3.08q-11.16.24-22.34,0c-2.17,0-2.83.78-3.21,2.7q-11.92,60.6-24,121.16c-.47,2.4.26,2.81,2.45,2.78,7.44-.11,14.89-.15,22.33,0,2.2.05,2.82-.82,3.19-2.72,4.1-21.12,8.28-42.22,12.39-63.34,1.34-6.89,1.28-7,8.17-6.88,7.05.1,14.1-.45,21.13.46,7.58,1,10.37,4.11,10.25,11.56-.08,5.53-1.65,10.82-2.69,16.18-2.71,14-5.58,28-8.46,42-.43,2.06,0,2.81,2.21,2.73C283.33,290.36,287.16,290.47,291,290.47Z"/><path class="cls-2" d="M366.79,198.65c9.31,0,18.62-.18,27.92,0A45.61,45.61,0,0,1,415.28,204c11.38,6.13,17.05,16,17.49,28.65.56,15.82-3.92,30.11-14.6,42.2-8.9,10.07-20.33,14.87-33.43,15.42-12.13.5-24.29.19-36.44.11-2.33,0-3.38.42-3.79,3-1.72,10.92-3.79,21.78-5.57,32.68-.35,2.15-1,3-3.31,2.93-7.45-.15-14.9-.12-22.34,0-2.17,0-3-.43-2.53-2.8q8.7-44.78,17.29-89.59c2.27-11.81,4.55-23.62,6.73-35.45.37-2,1.05-2.76,3.21-2.73,9.6.13,19.2.06,28.8.06Zm4.92,18.92c-3.33,0-6.66.11-10,0-1.78-.08-2.41.65-2.71,2.24q-4.72,24.47-9.53,48.91c-.38,1.93-.05,2.84,2.23,2.8,8.12-.14,16.24.11,24.35-.53,10.16-.79,18.26-4.79,22.84-14.41a47.38,47.38,0,0,0,4.56-19c.37-11.62-3.74-16.63-15.1-19C382.86,217.4,377.28,217.56,371.71,217.57Z"/><path class="cls-2" d="M148,198.58c8.62,0,17.24-.1,25.85,0s16.91,2,24.36,6.59c9.32,5.75,14.57,14.29,15.33,25.07,1.33,19-4.34,35.58-18.55,48.7-7.86,7.26-17.57,10.79-28.05,11.26-12.51.57-25.06.27-37.6.18-2.52,0-3.51.59-3.93,3.25-1.74,11-3.82,22-5.63,32.95-.31,1.87-1,2.44-2.81,2.42q-11.6-.12-23.21,0c-2,0-2.45-.45-2-2.53Q103,268.21,114.13,209.87c.58-3,1.25-5.94,1.65-8.94.26-2,1.19-2.46,3.08-2.44,9.7.09,19.39,0,29.09,0Zm-5.58,72.84c4.14.2,9.22-.17,14.3-.47,11.23-.66,19.62-5.54,24-16.28a48,48,0,0,0,3.63-15.95c.6-12.86-3.31-18-15.94-20.32-8.82-1.63-17.78-.61-26.68-.83-1.18,0-1.39.71-1.58,1.67q-4.87,25-9.83,50.08c-.3,1.51.09,2.17,1.74,2.13C135.14,271.36,138.28,271.42,142.37,271.42Z"/><path class="cls-2" d="M291,290.47c-3.82,0-7.65-.11-11.46,0-2.22.08-2.64-.67-2.21-2.73,2.88-14,5.75-28,8.46-42,1-5.36,2.61-10.65,2.69-16.18.12-7.45-2.67-10.58-10.25-11.56-7-.91-14.08-.36-21.13-.46-6.89-.1-6.83,0-8.17,6.88-4.11,21.12-8.29,42.22-12.39,63.34-.37,1.9-1,2.77-3.19,2.72-7.44-.17-14.89-.13-22.33,0-2.19,0-2.92-.38-2.45-2.78q12.07-60.56,24-121.16c.38-1.92,1-2.74,3.21-2.7q11.17.25,22.34,0c2.61,0,2.82.82,2.35,3.08-1.93,9.39-3.65,18.82-5.55,28.21-.49,2.45-.15,3.47,2.74,3.43q13.81-.22,27.63.08a49.91,49.91,0,0,1,19.69,4.17c10.18,4.64,14.61,13.28,12.42,25.16-3.13,16.92-6.58,33.78-9.9,50.67-.64,3.26-1.41,6.5-1.92,9.79-.25,1.63-1,2.06-2.51,2C299,290.41,295,290.47,291,290.47Z"/><path class="cls-1" d="M371.71,217.57c5.57,0,11.15-.17,16.66,1,11.36,2.38,15.47,7.39,15.1,19a47.38,47.38,0,0,1-4.56,19c-4.58,9.62-12.68,13.62-22.84,14.41-8.11.64-16.23.39-24.35.53-2.28,0-2.61-.87-2.23-2.8q4.8-24.45,9.53-48.91c.3-1.59.93-2.32,2.71-2.24C365.05,217.68,368.38,217.57,371.71,217.57Z"/><path class="cls-1" d="M142.37,271.42c-4.09,0-7.23-.06-10.36,0-1.65,0-2-.62-1.74-2.13q4.95-25,9.83-50.08c.19-1,.4-1.7,1.58-1.67,8.9.22,17.86-.8,26.68.83,12.63,2.35,16.54,7.46,15.94,20.32a48,48,0,0,1-3.63,15.95c-4.38,10.74-12.77,15.62-24,16.28C151.59,271.25,146.51,271.62,142.37,271.42Z"/></svg>