<svg id="Слой_1" data-name="Слой 1" xmlns="http://www.w3.org/2000/svg" viewBox="0 0 512 512"><defs><style>.cls-1{fill:#56b3b4;}.cls-2{fill:#f6b93e;}.cls-3{fill:#e6e8ea;}.cls-4{fill:#e95f5f;}.cls-5{fill:#bf85bf;}.cls-6{fill:#f6b940;}.cls-7{fill:#59b4b5;}</style></defs><path class="cls-1" d="M166.17,20.55q63.3,0,126.6,0c3.35,0,6.82-.28,10,.47,5.69,1.32,9.16,5.19,8.93,11.22-.21,5.47-3.57,9-8.8,10.2-3.23.71-6.68.5-10,.5Q166.3,43,39.7,43a54.42,54.42,0,0,1-9-.27c-6.3-1.06-10.22-4.89-10-11.43.22-6,4-9.53,9.86-10.43a67.51,67.51,0,0,1,10.07-.28Q103.42,20.53,166.17,20.55Z"/><path class="cls-2" d="M254.78,87.82c-35.1,0-70.2-.06-105.3.05-8.08,0-16.12-.93-16.42-10.76-.33-10.63,8-11.77,16.51-11.76q106.41.12,212.84,0c8.07,0,16.11.93,16.42,10.75.33,10.64-8,11.79-16.52,11.77C326.47,87.76,290.62,87.82,254.78,87.82Z"/><path class="cls-2" d="M199.84,334.47h90.73c2.62,0,5.23,0,7.84,0,7.8.1,13.51,3.39,13.21,11.73-.27,7.66-5.88,10.67-13.15,10.67q-98.57,0-197.14,0c-7.8,0-13.57-3.38-13.2-11.71s6.66-10.73,14.26-10.72Q151.13,334.54,199.84,334.47Z"/><path class="cls-3" d="M379.85,379.31c31.38,0,62.76.13,94.14-.08,8.72-.06,17,1.72,16.89,11.57-.1,9-7.93,11.05-16.33,11q-95.26-.25-190.51,0c-8.41,0-16.23-2.05-16.33-11-.11-9.85,8.17-11.63,16.89-11.57C316.35,379.44,348.1,379.31,379.85,379.31Z"/><path class="cls-1" d="M302,244.78c27.63,0,55.25.07,82.87-.05,8.08,0,16.11.94,16.4,10.77.32,10.64-8,11.76-16.53,11.75q-84-.13-168,0c-8.08,0-16.11-.95-16.4-10.77-.31-10.64,8-11.78,16.53-11.75C245.24,244.85,273.61,244.78,302,244.78Z"/><path class="cls-1" d="M109,132.67c-24.26,0-48.52-.08-72.78,0-7.86,0-15-1.67-15.34-10.74-.32-9.82,7-11.78,15.4-11.77q73.91.12,147.81,0c7.85,0,15,1.67,15.33,10.74.32,9.82-7,11.8-15.4,11.77C159,132.6,134,132.67,109,132.67Z"/><path class="cls-3" d="M256,491.43c-20.54,0-41.08-.19-61.62.09-8.4.12-16.11-2-16.35-11s7.25-11.6,15.76-11.57q62.17.24,124.35,0c8.5,0,16,2.48,15.8,11.54s-7.92,11.16-16.33,11C297,491.24,276.5,491.43,256,491.43Z"/><path class="cls-3" d="M412.37,43c-20.54,0-41.08-.15-61.62.08-8.5.09-15.89-2.48-15.79-11.57.1-8.29,7.09-11,15.24-11q62.74.24,125.48,0c8.15,0,15.14,2.72,15.22,11,.1,9.08-7.29,11.65-15.79,11.56C454.2,42.82,433.28,43,412.37,43Z"/><path class="cls-4" d="M358,155.08c16.79,0,33.58.11,50.37,0,7.87-.07,15,1.67,15.35,10.71.35,9.81-7,11.83-15.36,11.8q-51.5-.13-103,0c-7.87,0-15-1.67-15.35-10.72-.35-9.8,7-11.86,15.36-11.8C322.92,155.17,340.45,155.08,358,155.08Z"/><path class="cls-4" d="M87.77,491.43c-17.17,0-34.33-.09-51.49,0-8.38.07-15.72-2-15.39-11.77.29-9.05,7.45-10.77,15.32-10.74q51.5.15,103,0c8.38,0,15.72,2,15.39,11.77-.29,9-7.45,10.82-15.32,10.75C122.1,491.33,104.93,491.43,87.77,491.43Z"/><path class="cls-5" d="M86.6,222.36c-16.79,0-33.59-.1-50.38,0-7.85.07-15-1.63-15.34-10.72-.34-9.84,7-11.81,15.37-11.79q51.51.13,103,0c7.85,0,15,1.63,15.34,10.72.34,9.84-7,11.84-15.37,11.79C121.68,222.27,104.14,222.36,86.6,222.36Z"/><path class="cls-5" d="M88.81,379.31c16.79,0,33.59.09,50.38,0,8.36-.06,15.71,1.92,15.4,11.76-.29,9.1-7.46,10.77-15.31,10.75q-51.49-.15-103,0c-8.36,0-15.71-1.92-15.4-11.76.29-9.09,7.46-10.81,15.31-10.75C53.73,379.41,71.27,379.31,88.81,379.31Z"/><path class="cls-2" d="M356.4,222.36c-17.16,0-34.32-.09-51.48,0-8,.06-14.84-2.07-14.92-11.15s6.7-11.36,14.72-11.34q52,.12,104.09,0c8,0,14.84,2.07,14.92,11.15S417,222.44,409,222.39C391.48,222.28,373.94,222.36,356.4,222.36Z"/><path class="cls-3" d="M423.15,491.43c-16.8,0-33.61-.2-50.41.08-8.15.14-15.15-2.66-15.35-10.9-.2-9.09,7.15-11.71,15.67-11.67q51,.24,101.93,0c8.5-.05,16,2.4,15.9,11.44s-7.79,11.29-16.22,11.14C457.5,491.23,440.33,491.43,423.15,491.43Z"/><path class="cls-1" d="M76.62,312c-13.8,0-27.6-.05-41.4,0-8.1,0-14.61-2.64-14.35-11.69.24-8.34,6.55-10.8,14.16-10.78q41.4.11,82.79,0c8.11,0,14.61,2.64,14.36,11.69-.24,8.34-6.55,10.83-14.17,10.78C104.22,312,90.42,312,76.62,312Z"/><path class="cls-4" d="M210.76,312.05c-13.8,0-27.6-.05-41.4,0-7.67,0-13.78-2.65-14-11s5.72-11.44,13.48-11.44q42,0,83.93,0c7.66,0,13.85,2.66,13.93,11,.09,9.06-6.52,11.54-14.58,11.48C238.37,312,224.57,312.05,210.76,312.05Z"/><path class="cls-5" d="M277.85,132.66c-13.81,0-27.61,0-41.41,0-7.7,0-13.73-2.81-13.76-11.18s6-11.25,13.68-11.25q42,0,83.94,0c7.69,0,13.72,2.8,13.75,11.18s-6,11.26-13.67,11.25Q299.11,132.63,277.85,132.66Z"/><path class="cls-3" d="M233.24,446.58c-13.44,0-26.88-.17-40.32.06-8.2.15-14.95-2.94-15-11.26s6.75-11.34,14.95-11.28c27.25.17,54.5.13,81.75,0,8.28,0,14.73,3.44,14.41,11.79-.28,7.55-6.56,10.86-14.39,10.73C260.87,446.42,247.05,446.58,233.24,446.58Z"/><path class="cls-3" d="M435.8,446.58c-13.82,0-27.63-.11-41.44,0-8.24.09-14.76-3.27-14.56-11.64.17-7.6,6.43-10.91,14.25-10.87q41.43.21,82.87,0c7.84,0,13.92,3.41,14,11.09s-5.87,11.41-13.72,11.38C463.42,446.54,449.61,446.58,435.8,446.58Z"/><path class="cls-6" d="M132.25,267.2c-10.44,0-20.89.05-31.33,0-7.3-.05-12.68-3.29-12.82-11s5-11.31,12.39-11.36c21.26-.12,42.51-.08,63.77,0,7.31,0,12.75,3.3,12.81,11,.07,8.34-5.76,11.42-13.5,11.42Z"/><path class="cls-5" d="M333.78,312c-10.44,0-20.89.1-31.33,0-7.34-.1-12.57-3.56-12.5-11.26s5.39-11,12.71-11.06q31.88-.1,63.76,0c7.34,0,12.58,3.55,12.51,11.25s-5.39,11-12.71,11.06C355.41,312.09,344.59,312,333.78,312Z"/><path class="cls-4" d="M64.79,87.8c-10.44,0-20.88.08-31.32,0-7.33-.07-12.63-3.45-12.65-11.13s5.23-11.16,12.57-11.19q31.89-.14,63.76,0c7.32,0,12.62,3.46,12.65,11.12s-5.23,11.12-12.58,11.2C86.41,87.88,75.6,87.8,64.79,87.8Z"/><path class="cls-3" d="M446.85,312c-10.45,0-20.9,0-31.35,0-7.89,0-13.6-4.06-13.3-11.75.27-7,5.9-10.69,13.31-10.67,20.9.05,41.8,0,62.7.06,7.35,0,12.79,4,12.78,11.17S485.56,311.93,478.2,312C467.75,312.12,457.3,312,446.85,312Z"/><path class="cls-3" d="M447.14,65.4c9.7,0,19.41.12,29.11,0,8.19-.13,14.78,3.16,14.68,11.53-.09,7.64-6.31,11-14.13,11q-30.23-.19-60.46,0c-7.83,0-14-3.34-14.12-11-.09-8.38,6.51-11.65,14.69-11.52C427,65.52,437.06,65.4,447.14,65.4Z"/><path class="cls-3" d="M222.47,222.35c-10.45,0-20.9,0-31.35,0-7.44,0-13-3.8-13.2-10.78-.21-7.69,5.54-11.64,13.42-11.64,20.53,0,41,0,61.58,0,7.83,0,13.83,3.63,13.75,11.33s-6.14,11.23-14,11.13C242.62,222.26,232.55,222.35,222.47,222.35Z"/><path class="cls-3" d="M222.77,155.09c10.08,0,20.15,0,30.23,0,7.85,0,13.81,3.72,13.67,11.41s-6.21,11.11-14.05,11.06q-30.24-.18-60.47,0c-7.81.05-14.06-3.29-14.21-10.9-.16-8.38,6.38-11.74,14.6-11.61C202.61,155.21,212.69,155.09,222.77,155.09Z"/><path class="cls-6" d="M54.24,177.46c-7.45,0-14.92.31-22.35-.12C25,177,20.59,173,20.77,165.89c.17-6.47,4.47-10.44,10.82-10.59q22.33-.54,44.71,0c6.84.17,11.37,4.37,11.1,11.43s-5.05,10.53-11.92,10.73C68.41,177.63,61.32,177.47,54.24,177.46Z"/><path class="cls-7" d="M53.77,446.59c-6.71,0-13.42.05-20.13,0-7.3-.07-12.67-3.29-12.83-11s5-11.3,12.36-11.38c13.79-.15,27.58-.1,41.37,0,7.3,0,12.75,3.29,12.83,11,.08,8.35-5.73,11.44-13.47,11.45Q63.83,446.61,53.77,446.59Z"/><path class="cls-3" d="M457,267.18c-6.71,0-13.44.26-20.14-.07-7.25-.35-12.59-4.38-12.24-11.65.31-6.45,5.33-10.53,12.21-10.61,14.18-.17,28.36-.28,42.53.06,6.79.16,11.69,4.44,11.71,11.07s-4.94,10.74-11.69,11.1C471.9,267.48,464.42,267.17,457,267.18Z"/><path class="cls-3" d="M367.67,334.49c7.09,0,14.18-.23,21.26.06,7.26.3,12.61,4.28,12.36,11.55-.22,6.49-5.25,10.61-12.1,10.71-14.17.2-28.36.26-42.53,0-6.82-.14-11.69-4.38-11.82-11s4.85-10.77,11.57-11.2C353.47,334.15,360.58,334.5,367.67,334.49Z"/><path class="cls-3" d="M457.63,356.87c-7.09,0-14.19.25-21.26-.08-6.83-.31-11.7-4.41-11.82-11s4.87-11,11.58-11.17c14.17-.4,28.35-.32,42.52-.05,7.25.13,12.61,4.28,12.35,11.55-.23,6.48-5.25,10.49-12.11,10.7C471.81,357.05,464.71,356.87,457.63,356.87Z"/><path class="cls-3" d="M211.28,401.72c-7.09,0-14.19.16-21.27-.05-6.87-.2-11.88-4.22-12.13-10.69-.29-7.26,5.06-11.42,12.32-11.57,13.79-.28,27.6-.19,41.4,0,7.34.07,12.76,4.09,12.68,11.25s-5.48,11-12.86,11.09C224.71,401.79,218,401.73,211.28,401.72Z"/><path class="cls-3" d="M457,132.64c-6.71,0-13.44.26-20.14-.06-7.25-.35-12.59-4.39-12.24-11.66.31-6.45,5.33-10.53,12.21-10.61,14.18-.16,28.36-.27,42.53.06,6.79.16,11.69,4.44,11.71,11.08s-4.94,10.73-11.69,11.1C471.9,133,464.42,132.64,457,132.64Z"/><path class="cls-4" d="M42.1,267.13c-3.35,0-6.72.24-10-.05-6.86-.58-11.41-4.27-11.27-11.31s4.84-10.62,11.71-10.89c6.32-.25,12.65-.09,19-.09,7.74,0,13.59,3.12,13.44,11.42s-6.23,11.11-13.89,11c-3,0-6,0-8.93,0Z"/><path class="cls-7" d="M380.08,110.3c3.35,0,6.72-.24,10.05,0,6.86.59,11.41,4.28,11.26,11.34s-4.85,10.61-11.72,10.88c-6.32.26-12.66.1-19,.1-7.73,0-13.6-3.13-13.44-11.45s6.26-11.1,13.91-11c3,0,6,0,8.93,0Z"/><path class="cls-5" d="M42.88,334.68c4.09,0,8.25-.48,12.26.11,6.3.92,10.14,4.93,9.87,11.44-.25,5.94-4.05,9.84-9.87,10.32a202.41,202.41,0,0,1-22.31.24c-7.38-.2-12.33-4-12-11.66.28-7,5.18-10.33,12-10.6,3.34-.13,6.7,0,10.05,0Z"/><path class="cls-6" d="M132.74,446.53c-3.72,0-7.47.27-11.16-.08-6.85-.64-11.28-4.42-11.1-11.49.18-6.46,4.46-10.22,10.8-10.61,7.05-.43,14.15-.31,21.21-.11,7.37.2,12.37,3.89,12.18,11.54-.18,7-5,10.41-11.88,10.73C139.45,446.67,136.09,446.54,132.74,446.53Z"/><path class="cls-7" d="M132.29,177.4a106.46,106.46,0,0,1-11.16-.07c-6.34-.66-10.5-4.29-10.66-10.78s3.82-10.67,10.15-11.16a174.46,174.46,0,0,1,23.43-.08c6.35.36,10.57,4.26,10.65,10.74.09,7.07-4.38,10.78-11.24,11.35-3.7.3-7.45,0-11.17,0Z"/><path class="cls-3" d="M469.47,155.11a96.38,96.38,0,0,1,10.06.07c6.69.74,11.67,4.6,11.5,11.3s-5.06,10.61-11.88,10.94c-6.32.31-12.67.06-19,.09-7.44,0-13-3.86-13.09-10.85-.15-7.68,5.61-11.6,13.47-11.57C463.51,155.1,466.49,155.09,469.47,155.11Z"/><path class="cls-3" d="M469.6,199.94c14.37,0,22.81,4.19,21.52,11.49-2.14,12-12,11.16-21,10.94-3.35-.08-6.71,0-10.07,0-7.41,0-12.79-3.92-13-11s5.21-11.07,12.52-11.4C462.89,199.82,466.25,200,469.6,199.94Z"/><path class="cls-3" d="M334.17,446.5c-3.72,0-7.53.48-11.16-.11-6.05-1-10.64-4.76-10.65-11s4.57-10.41,10.62-11a112.66,112.66,0,0,1,23.44.1c5.86.71,10.47,5,10.13,11.39-.31,5.7-4.6,9.38-10.11,10.39-4,.73-8.17.14-12.27.14Z"/></svg>