<svg id="Слой_1" data-name="Слой 1" xmlns="http://www.w3.org/2000/svg" viewBox="0 0 512 512"><defs><style>.cls-1{fill:#61dafb;}</style></defs><circle class="cls-1" cx="256.07" cy="253.18" r="42.91" transform="translate(-34.86 465.39) rotate(-80.78)"/><path class="cls-1" d="M256.07,411c33.68,32.76,66.89,52.13,93.65,52.13,8.77,0,17.07-1.84,24-6,24-13.84,32.76-48.45,24.45-97.81-1.38-8.77-3.23-17.53-5.53-26.76,9.23-2.77,17.53-5.53,25.83-8.3,46.6-18,72.43-42.91,72.43-70.13,0-27.68-25.83-52.59-72.43-70.12a211.61,211.61,0,0,0-25.83-8.31c2.3-9.22,4.15-18,5.53-26.75,7.85-50.29-.92-85.35-24.91-99.19-6.92-4.16-15.22-6-24-6-26.3,0-60,19.38-93.65,52.13-33.22-32.75-66.44-52.13-93.19-52.13-8.77,0-17.07,1.84-24,6-24,13.84-32.76,48.44-24.45,97.8,1.38,8.77,3.22,17.53,5.53,26.76-9.23,2.77-17.53,5.54-25.83,8.3-46.6,18-72.44,42.91-72.44,70.13,0,27.68,25.84,52.59,72.44,70.12a211.61,211.61,0,0,0,25.83,8.31c-2.31,9.22-4.15,18-5.53,26.76-7.85,49.36.92,84.42,24.45,97.8,6.92,4.15,15.22,6,24,6C189.17,462.63,222.39,443.26,256.07,411Zm-25.84-62.28c8.31.46,17.07.46,25.84.46s17.53,0,25.84-.46c-8.31,11.07-17.07,21.22-25.84,30.91C247.3,369.9,238.54,359.75,230.23,348.68ZM173,301.16c4.61,7.84,8.76,15.22,13.84,22.61-14.3-1.85-27.68-4.16-40.6-6.92,4.15-12.46,8.76-25.38,14.3-38.3C164.26,285.94,168.41,293.78,173,301.16ZM146.27,190c12.92-2.77,26.3-5.08,40.6-6.92-4.62,7.38-9.23,14.76-13.84,22.6s-8.77,15.23-12.46,23.07A308.26,308.26,0,0,1,146.27,190Zm25.37,63.2c6-12.46,12.46-24.91,19.84-37.37,6.92-12,14.76-24,22.61-36,13.84-.93,27.68-1.39,42-1.39,14.76,0,28.6.46,42,1.39,8.31,12,15.69,24,22.61,36,7.38,12.46,13.84,24.91,19.84,37.37-6,12.46-12.46,24.91-19.84,37.37-6.92,12-14.76,24-22.61,36-13.84.93-27.68,1.39-42,1.39-14.76,0-28.6-.46-42-1.39-8.31-12-15.69-24-22.61-36C184.1,278.09,177.64,265.64,171.64,253.18ZM352,228.27,339.57,205.2c-4.61-7.84-8.76-15.22-13.84-22.61,14.3,1.85,27.68,4.16,40.6,6.92C362.18,202.43,357.57,215.35,352,228.27Zm0,49.82c5.54,12.92,10.15,25.84,14.3,38.29-12.92,2.77-26.3,5.08-40.6,6.93,4.62-7.39,9.23-14.77,13.84-22.61C343.73,293.78,347.88,285.94,352,278.09Zm10.61,160.09c-3.69,2.31-8.3,3.23-13.38,3.23-22.6,0-50.75-18.45-78.43-46.13a483.46,483.46,0,0,0,39.22-48.45,422.41,422.41,0,0,0,61.82-9.68,238.57,238.57,0,0,1,5.07,24.91C383.4,401.27,378.33,429.41,362.64,438.18Zm24-243.13c51.67,14.76,82.58,37.37,82.58,58.13,0,18-21.22,36-58.59,50.29-7.38,2.77-15.69,5.53-24,7.84A484.66,484.66,0,0,0,364,253.18C373.25,233.34,381.09,214,386.63,195.05ZM349.72,65a26.09,26.09,0,0,1,13.38,3.23c15.23,8.77,20.76,36.45,14.3,76.12-1.38,7.85-3.23,16.15-5.07,24.92a595,595,0,0,0-61.82-9.69,425.73,425.73,0,0,0-39.22-48.44C299,83.87,327.12,65,349.72,65Zm-67.81,92.73c-8.31-.46-17.07-.46-25.84-.46s-17.53,0-25.84.46c8.31-11.07,17.07-21.22,25.84-30.91C264.84,136.46,273.6,147.07,281.91,157.68ZM149.5,68.18c3.69-2.31,8.3-3.23,13.38-3.23,22.6,0,50.75,18.46,78.43,46.14a482.16,482.16,0,0,0-39.22,48.44,421.05,421.05,0,0,0-61.82,9.69,239.28,239.28,0,0,1-5.07-24.92C128.74,105.09,133.81,77.41,149.5,68.18Zm-24,243.13c-51.67-14.76-82.58-37.37-82.58-58.13,0-18,21.22-36,58.59-50.29,7.38-2.76,15.68-5.53,24-7.84a486.24,486.24,0,0,0,22.6,58.13A441.81,441.81,0,0,0,125.51,311.31Zm9.69,50.75c1.38-7.84,3.23-16.15,5.07-24.91a597.79,597.79,0,0,0,61.82,9.68,426.75,426.75,0,0,0,39.22,48.45c-27.68,27.21-55.83,46.13-78.43,46.13a26.09,26.09,0,0,1-13.38-3.23C133.81,429.41,128.74,401.27,135.2,362.06Z"/></svg>