<svg id="Слой_1" data-name="Слой 1" xmlns="http://www.w3.org/2000/svg" viewBox="0 0 512 512"><defs><style>.cls-1{fill:#774bbc;}</style></defs><path class="cls-1" d="M255.39,32.37c.46.38,1,.26,1.53.28A104,104,0,0,1,302.5,45.77C322,56.45,337.1,71.68,349,90.26a168,168,0,0,1,19.29,42.86,211.11,211.11,0,0,1,6.12,27.19c.86,5.46,1.58,10.95,1.92,16.48.06,1,.49,2,.17,3a3.3,3.3,0,0,1-2.06-.43c-8.8-3-17.67-5.81-26.69-8.06-.86-.21-1.41-.44-1.49-1.55a119.84,119.84,0,0,0-4.37-23.39,163,163,0,0,0-15.84-38,112.8,112.8,0,0,0-21.32-27.13,74.58,74.58,0,0,0-26.88-16.21A67.87,67.87,0,0,0,250,61.62a117.48,117.48,0,0,0-46.13,14,84.51,84.51,0,0,0-29,26.16A161.14,161.14,0,0,0,150,155.88a184.58,184.58,0,0,0-4.67,27.65,235,235,0,0,0-.89,30.71,226.69,226.69,0,0,0,4,35.4A221,221,0,0,0,166.8,304c2.63,5.4,5.5,10.68,8.47,15.9a2,2,0,0,0,2.36,1.22,33.55,33.55,0,1,1-29.09,39.36,33,33,0,0,1,3.36-21.73,2.75,2.75,0,0,0-.06-3.05,287.53,287.53,0,0,1-19.68-41.05,260.42,260.42,0,0,1-12.28-42A248.21,248.21,0,0,1,116,225.84a222.53,222.53,0,0,1,3.2-62.76,216,216,0,0,1,16.35-51A147,147,0,0,1,167.8,67.57,128.83,128.83,0,0,1,217.45,38a114.17,114.17,0,0,1,20.84-4.57c2.22-.27,4.45-.45,6.67-.64.33,0,.73.07.89-.38Z"/><path class="cls-1" d="M359.34,479.63a173,173,0,0,1-22.82-2.35,193.2,193.2,0,0,1-47.35-14.91l-1.92-.92c0-.77.67-.95,1.1-1.28,6.66-5.07,13.3-10.16,19.71-15.53,1.54-1.29,3.09-2.56,4.52-4a2.12,2.12,0,0,1,2.76-.5,126.25,126.25,0,0,0,18.29,6.5,150.81,150.81,0,0,0,21.06,4.37,129.29,129.29,0,0,0,20.61,1.26c14.23-.41,27.94-3.16,40.76-9.57,14.56-7.27,25.86-18.11,34.52-31.8A83.13,83.13,0,0,0,460.66,389a77,77,0,0,0,2.67-15.45c1-14.51-1.93-28.34-7.31-41.73-9.59-23.85-24.36-44-43.7-60.84a214.93,214.93,0,0,0-40.15-27.19,222.94,222.94,0,0,0-40-16.67,217.23,217.23,0,0,0-28.5-6.71,245.24,245.24,0,0,0-29.14-3c-6.31-.28-12.6.11-18.9.18-1.05,0-1.39.56-1.77,1.35a33.55,33.55,0,0,1-59.7,1.84,33.51,33.51,0,0,1,58.13-33.34,2.46,2.46,0,0,0,2.61,1.48,215.14,215.14,0,0,1,22.43.12c7.41.33,14.8,1,22.16,2,8.24,1.06,16.41,2.46,24.52,4.26a244.6,244.6,0,0,1,57.11,20.19,227.4,227.4,0,0,1,62.82,46.36c10.07,10.55,19.27,21.79,26.74,34.38A149.33,149.33,0,0,1,489,343.42a127.53,127.53,0,0,1,2.52,27.21,105.94,105.94,0,0,1-7.42,38.62,92.67,92.67,0,0,1-18.61,28.36,130,130,0,0,1-48.65,32.49,143.7,143.7,0,0,1-28.06,7.65c-3.88.67-7.81,1.06-11.73,1.48-.37,0-.86-.16-1,.4Z"/><path class="cls-1" d="M90.16,242.34a21.1,21.1,0,0,1,1.1,4.34c1.9,8.32,4,16.58,6.58,24.73.43,1.36.42,1.36-.78,2.31a148.57,148.57,0,0,0-36.84,42.45,102.68,102.68,0,0,0-11.89,31,82.61,82.61,0,0,0-1.45,22.51c1.09,14.8,6,28.34,13.77,40.94,10.4,16.91,25.3,27.94,44.05,34a113.5,113.5,0,0,0,23.68,4.68,156.73,156.73,0,0,0,23.83.48,150.46,150.46,0,0,0,25.32-3.56,182.05,182.05,0,0,0,46.1-17.44,294.6,294.6,0,0,0,34.52-21.38c20.51-14.91,38-32.71,51.64-54.16q4.89-7.69,9.07-15.78c.71-1.38.69-1.38-.35-2.55a32.81,32.81,0,0,1-8.59-25A33.58,33.58,0,1,1,351.55,345a14.72,14.72,0,0,1-2.76.57,2.41,2.41,0,0,0-2.22,1.65c-2.85,5.82-6,11.5-9.28,17.07a234.86,234.86,0,0,1-41.73,51.88,231,231,0,0,1-66.49,43.2,254.85,254.85,0,0,1-41.18,13.66,211,211,0,0,1-24.78,4.71,164.46,164.46,0,0,1-28.93.91,145.93,145.93,0,0,1-39.89-7.82c-16.68-5.83-31.65-14.49-44.24-27-10.06-10.05-17.08-22-22-35.26a123.45,123.45,0,0,1-7-30.92,131,131,0,0,1-.21-22.41c2.07-27.73,12.27-52.28,28.94-74.31a186,186,0,0,1,37.41-36.57A15.07,15.07,0,0,1,90.16,242.34Z"/></svg>