<svg id="Слой_1" data-name="Слой 1" xmlns="http://www.w3.org/2000/svg" viewBox="0 0 512 512"><defs><style>.cls-1{fill:#cf649a;}</style></defs><g id="_288-sass" data-name="288-sass"><path class="cls-1" d="M425.77,282.38a96.36,96.36,0,0,0-42.62,9.92c-4.34-8.75-8.82-16.39-9.56-22.12-.88-6.69-1.83-10.66-.8-18.59s5.65-19.18,5.58-20-1-4.85-10.51-4.92-17.63,1.83-18.59,4.33a90.81,90.81,0,0,0-3.89,14c-1.69,8.59-19,39.31-28.73,55.33-3.24-6.25-5.95-11.76-6.54-16.17-.88-6.69-1.84-10.65-.81-18.59s5.66-19.18,5.58-20-1-4.85-10.5-4.93-17.64,1.84-18.59,4.34-2,8.37-3.9,14S257,315.88,251,329.18c-3.09,6.76-5.73,12.2-7.65,15.87-.29.59-.51,1-.66,1.25.22-.36.37-.73.37-.58-1.62,3.15-2.57,4.92-2.57,4.92v.07c-1.25,2.35-2.65,4.48-3.31,4.48-.44,0-1.39-6.17.22-14.62,3.46-17.78,11.61-45.41,11.54-46.36-.08-.52,1.54-5.29-5.37-7.87-6.68-2.42-9.11,1.62-9.69,1.62s-1,1.47-1,1.47,7.42-31.16-14.26-31.16c-13.52,0-32.33,14.85-41.59,28.3-5.8,3.16-18.37,10-31.59,17.26l-15.21,8.38c-.37-.37-.67-.74-1-1.1C102.82,283,54.25,263.2,56.31,225.5c.73-13.74,5.51-49.82,93.39-93.61,72-35.86,129.62-26,139.54-4.12,14.25,31.23-30.79,89.36-105.59,97.73-28.51,3.16-43.5-7.86-47.25-12-3.89-4.34-4.48-4.56-6-3.75-2.42,1.32-.88,5.14,0,7.42,2.21,5.8,11.39,16.09,27,21.24,13.74,4.48,47.18,7,87.59-8.68,45.41-17.48,80.75-66.2,70.39-107-10.58-41.44-79.28-55-144.31-32-38.72,13.75-80.61,35.35-110.74,63.49C24.64,187.81,18.91,217,21.26,229.18c8.38,43.28,68,71.49,91.92,92.36-1.17.66-2.28,1.25-3.3,1.84-12,5.95-57.46,29.76-68.85,54.89C28.17,406.78,43.16,427.2,53,430c30.72,8.52,62.17-6.84,79.07-32s14.84-58.12,7.05-73.11c-.07-.22-.22-.37-.29-.59,3.08-1.84,6.24-3.67,9.4-5.51,6.1-3.6,12.05-6.91,17.27-9.77-2.94,7.93-5.07,17.48-6.17,31.3-1.32,16.16,5.36,37.11,14,45.34,3.82,3.6,8.45,3.67,11.32,3.67,10.14,0,14.69-8.38,19.76-18.37,6.25-12.2,11.76-26.38,11.76-26.38s-6.91,38.36,12,38.36c6.9,0,13.81-8.89,16.9-13.45v.07s.15-.29.51-.88c.74-1.1,1.1-1.76,1.1-1.76v-.22c2.8-4.78,8.9-15.73,18.08-33.8,11.9-23.37,23.29-52.54,23.29-52.54a147.78,147.78,0,0,0,4.56,19c2.06,7,6.39,14.62,9.84,22-2.79,3.82-4.48,6-4.48,6a.22.22,0,0,0,.07.14c-2.2,2.94-4.7,6.1-7.27,9.19-9.41,11.17-20.57,23.95-22,27.63-1.77,4.33-1.33,7.56,2.05,10.06,2.5,1.91,6.91,2.21,11.54,1.84a50.86,50.86,0,0,0,17.27-4,60.38,60.38,0,0,0,14.84-7.79c9.19-6.76,14.77-16.45,14.26-29.24-.3-7-2.58-14.11-5.37-20.72.81-1.18,1.69-2.43,2.5-3.68a390,390,0,0,0,25.79-44.52,147.92,147.92,0,0,0,4.56,18.95c1.76,6,5.21,12.49,8.37,18.89-13.66,11.09-22.11,23.95-25.05,32.4-5.44,15.65-1.18,22.7,6.83,24.32,3.6.74,8.74-1,12.57-2.57a58.54,58.54,0,0,0,15.87-8.16c9.18-6.75,18.07-16.23,17.49-29.09a54.72,54.72,0,0,0-4-17.2c11.53-4.85,26.53-7.49,45.63-5.29,40.93,4.78,48.94,30.35,47.39,41s-10.14,16.61-13,18.37-3.75,2.43-3.53,3.75c.37,1.91,1.69,1.84,4.12,1.4,3.38-.59,21.45-8.67,22.26-28.44,1.18-25-22.85-52.46-65.39-52.24ZM110.32,388.7c-13.52,14.77-32.48,20.35-40.64,15.65-8.74-5.07-5.29-26.82,11.39-42.54C91.21,352.26,104.29,343.44,113,338c2-1.17,4.85-2.94,8.38-5.07.59-.36.88-.51.88-.51.66-.45,1.4-.81,2.13-1.25,6.1,22.34.22,42-14,57.53Zm98.75-67.16c-4.7,11.54-14.62,40.93-20.64,39.39-5.15-1.33-8.31-23.74-1-45.78,3.67-11.1,11.46-24.32,16.09-29.47,7.42-8.3,15.58-10.95,17.49-7.64,2.57,4.34-9,36.3-11.91,43.5Zm81.57,38.95c-2,1-3.83,1.68-4.71,1.17-.66-.37.81-1.76.81-1.76S297,349,301,344c2.35-2.94,5.07-6.39,8-10.21,0,.36.07.73.07,1.17C309,348.07,296.37,357,290.64,360.49Zm62.9-14.33c-1.47-1-1.26-4.49,3.67-15.21a57.23,57.23,0,0,1,14-18,26.65,26.65,0,0,1,1.4,7.94c-.08,16.53-11.91,22.7-19,25.28Z"/></g></svg>