<svg id="Слой_1" data-name="Слой 1" xmlns="http://www.w3.org/2000/svg" viewBox="0 0 512 512"><defs><style>.cls-1{fill:#49adb2;}.cls-2{fill:#4cb1b3;}.cls-3{fill:#48adb2;}.cls-4{fill:#4fb5b3;}.cls-5{fill:#45a9b2;}.cls-6{fill:#53b9b4;}.cls-7{fill:#399cb0;}.cls-8{fill:#52b8b4;}.cls-9{fill:#40a4b1;}.cls-10{fill:#50b5b3;}.cls-11{fill:#43a7b1;}.cls-12{fill:#41a4b1;}.cls-13{fill:#57bdb4;}.cls-14{fill:#3598af;}.cls-15{fill:#3ca0b0;}.cls-16{fill:#59c0b5;}.cls-17{fill:#46aab2;}.cls-18{fill:#3da0b1;}.cls-19{fill:#3395af;}.cls-20{fill:#3ea2b1;}.cls-21{fill:#399bb0;}.cls-22{fill:#3799b0;}.cls-23{fill:#3c9fb0;}.cls-24{fill:#5dc4b5;}.cls-25{fill:#58bfb4;}</style></defs><path class="cls-1" d="M296.12,232.34c-6-3.85-11.17-8.62-16.39-13.36-1.28-1.17-2.49-2.4-3.74-3.6a15.9,15.9,0,0,1,3.12-7.12,30.44,30.44,0,0,0,4.64-8.67,9.06,9.06,0,0,1,2-3.09,56.43,56.43,0,0,0,6.84-11.21c.66-1.31,2-2,2.86-3,1.58-1.9,1.85-4.38,3.07-6.36,4.5-7.38,8.72-14.95,13.66-22a12,12,0,0,0,1.54-3.36,11.67,11.67,0,0,1,3.44-5.62c.38-.33.89-.67.94-1.13.32-3.31,3.1-5.11,4.66-7.65.89-1.44.91-3.17,1.83-4.56a106.31,106.31,0,0,1,19.84,14.33,13.07,13.07,0,0,0,1.84,1.65l.58.57c.05.16.13.36.06.48-2.58,4.06-4.22,8.67-7.24,12.46-1.43,1.79-2.13,4-3.53,5.85a73.59,73.59,0,0,0-6,10.14c-1.1,2.12-2.52,4.07-3.2,6.4-.13.48-.29,1.1-.69,1.29-3.79,1.79-3.65,6.11-5.79,9-.87,1.14-1.45,2.55-2.34,3.74-1.37,1.84-2.89,3.59-3.53,5.89a5.75,5.75,0,0,1-1.83,2.6,11.53,11.53,0,0,0-3,4.49,36,36,0,0,1-6.82,11.35c-1.55,1.8-1.91,4.34-3,6.47C299,229.94,298.09,231.6,296.12,232.34Z"/><path class="cls-2" d="M296.12,232.34a23,23,0,0,0,5.36-10c.31-1.17,1.65-1.4,2.16-2.27,1.81-3.08,4.22-5.81,5.22-9.38a10.78,10.78,0,0,1,3.6-5.42,3.15,3.15,0,0,0,1.18-1.53c.93-3.17,3.4-5.42,4.93-8.18,1.71-3.08,4.1-6,4.49-9.7.06-.62.2-1.38.93-1.1,1.95.73,2-.82,2.41-1.88,1.1-3,3.3-5.52,4.38-8.43,1.14-3.06,3.14-5.56,4.89-8,1.53-2.14,1.67-5.23,4.36-6.63a3.34,3.34,0,0,0,1.44-2.23c.53-3.92,3.82-6.23,5.36-9.54,5.58,4.19,10.2,9.41,15.17,14.26,1.46,1.42,2.81,3,4.21,4.45-1.46,2.43-2.89,4.91-4.57,7.17-2.84,3.83-4.33,8.47-7.64,12-2,2.14-2.53,5.24-4.13,7.79-3.9,6.19-7.33,12.67-11.41,18.77-1.69,2.54-2.56,5.61-4.53,7.94-2.82,3.32-4.58,7.18-6.37,11.05-.25.53-.45,1.18-.94,1.43-2.78,1.45-3.64,4.09-4.45,6.81-.51,1.69-1.82,2.93-2.8,4.35a1.48,1.48,0,0,1-1.95.58A95,95,0,0,1,296.12,232.34Z"/><path class="cls-3" d="M203.07,387.9A96.28,96.28,0,0,1,179.3,375c4.11-2.74,5.76-7.31,8.09-11.28,1.65-2.83,3.81-5.33,5.18-8.36.62-1.39,1.58-2.68,2.13-4.15a8,8,0,0,1,2.66-4.08,2.28,2.28,0,0,0,.81-.93c2.63-6.28,6.84-11.6,10.54-17.23a20.21,20.21,0,0,0,1.72-3.57,8.27,8.27,0,0,1,2.53-3.88c.26-.19.1.12.16-.17.7-3.5,4.06-5.57,4.86-9,.37-1.56,1.68-2.42,2.39-3.7,1.91-3.47,4.19-6.72,6.07-10.2,1.31-2.44,3.31-4.39,4.47-6.91,5.81,4.82,10.86,10.42,16.22,15.7,1.57,1.55,3,3.2,4.56,4.8-.95,1.33-1.49,0-2-.42-1-.83-1.48-.69-1.89.56-1.64,5-4.6,9.25-7.83,13.32-1,1.21-1.14,2.74-2,4-1.18,1.78-2,3.84-3.74,5.19a1.1,1.1,0,0,0-.46.57c-.9,5.37-5.38,8.71-7.56,13.36-1.12,2.38-1.89,4.92-3.44,7.1-.42.6-.63,1.41-1.22,1.85-3.48,2.62-4.63,6.63-6.27,10.36-.17.37-.21.95-.5,1.11-3.64,1.88-3.3,6.3-5.7,8.88a18.85,18.85,0,0,0-5.18,9.5A.6.6,0,0,1,203.07,387.9Z"/><path class="cls-2" d="M203.07,387.9c1.07-1,.68-2.49,1-3.7.73-2.68,2.75-4.26,4.25-6.31,1.22-1.66,2.7-3.27,2.48-5.68-.06-.67.15-1.83,1.13-2,3.63-.72,3.34-4.16,4.48-6.53.47-1,.43-2.32,1.38-3,2.61-2,4.17-4.78,5.88-7.46,1-1.52,1.09-3.3,2.08-4.9a58.59,58.59,0,0,1,6.22-8.92.72.72,0,0,0,.25-.41c-.08-4.25,3.82-6.35,5.28-9.79,1.84-4.33,5-7.85,7.48-11.82a16.51,16.51,0,0,0,2.31-5.68c.36-1.89,1.05-2.49,2.57-.74.43.5.69,1.64,1.83,1.16,5.21,4.73,10.1,9.83,15.73,14.1.91.69,1.77,1.45,2.65,2.18-.34,1.39-1.47,2.3-2.31,3.29-3.21,3.8-5.24,8.29-7.72,12.51-1.34,2.28-3.47,3.94-4.48,6.47-1.73,4.37-5.17,7.86-6.82,12.23a42.25,42.25,0,0,1-5.06,8.62c-3.17,4.67-5.17,10-9,14.33-1.35,1.53-1.59,3.82-2.82,5.45s-1.94,4.47-5.08,3.62A87.54,87.54,0,0,1,203.07,387.9Z"/><path class="cls-4" d="M317.42,244.7c2.51-1.46,3.78-3.82,4.63-6.47.69-2.14,1.11-4.44,3.74-5.22.68-.2.8-1,1.14-1.55,1-1.67,1.45-3.58,2.53-5.27,3.63-5.67,6.74-11.69,10.55-17.25,3.46-5.06,5.94-10.68,9.34-15.73,2.7-4,4.72-8.44,7.53-12.46a92.19,92.19,0,0,0,6.38-10.58,7.14,7.14,0,0,1,2.95-3.4c5.67,5.41,11.33,10.85,17.05,16.23a37.16,37.16,0,0,0,3.7,2.73c-.31,1.24-1.19.67-1.74.41-1.45-.69-1.89,0-2.59,1.2-1.6,2.66-2.71,5.62-5.07,7.84-1.18,1.11-1.43,2.91-2.37,4.29-.68,1-.87,2.3-2.11,2.92-.28.13-.1-.14-.17.16-1.26,5.07-5.53,8.4-7.51,13.1-2.16,5.12-5.8,9.5-8.17,14.49-1.43,3-4.52,4.59-5.61,7.73-.65,1.84-.86,3.91-2.33,5.39a18.86,18.86,0,0,0-4.28,6.52c-1,2.47-2.06,2.75-5.21,2.33A92.06,92.06,0,0,1,317.42,244.7Z"/><path class="cls-5" d="M324.57,131.51c.92,1.56-.23,3.27-.8,4-1.08,1.44-1.34,3.61-3.32,4.36a1.19,1.19,0,0,0-.89,1.08c.07,4.12-4.52,5.6-5.21,9.39-.66,3.63-3.82,6-5.39,9.17-3,6-7.28,11.15-10.19,17.13-.93,1.91-1,4.3-2.83,5.71-2.91,2.27-3.46,6.13-6.08,8.56a2.22,2.22,0,0,0-.52,1.59,4.44,4.44,0,0,1-1.55,2.65,16.29,16.29,0,0,0-3.55,5.12,34.94,34.94,0,0,1-5.17,9.07,8.29,8.29,0,0,0-2.09,4.34c-.09.73.09,1.56-1,1.67a2.71,2.71,0,0,1-1.5-1.49,6.78,6.78,0,0,0-1.94-2c-4.12-3.81-8.05-7.8-11.85-11.92a2.77,2.77,0,0,1,0-3.06c2.15-4,4-8.13,7.15-11.42,1.59-1.63,1.82-3.86,2.62-5.82.55-1.32,1-2.63,2.37-3.32a1.44,1.44,0,0,0,.82-.89c.63-3,3.15-5,4-7.88a2.47,2.47,0,0,1,.66-1.32c2.47-1.76,2.86-4.89,4.73-7a5.17,5.17,0,0,0,1.22-2.41,6.53,6.53,0,0,1,3-4.37,7.07,7.07,0,0,0,2.16-2.91c1.84-3.46,2.9-7.35,5.73-10.29a13.56,13.56,0,0,0,2.69-4.41c1.46-3.72,4.56-6.46,5.87-10.24a3.19,3.19,0,0,1,2.47-1.85A85.14,85.14,0,0,1,324.57,131.51Z"/><path class="cls-6" d="M339.8,252.11c3.43-.14,4.18-.7,5.32-4a7.67,7.67,0,0,1,2.41-3.8,10.18,10.18,0,0,0,3-4.93c.71-2.25.85-5.4,4.23-6a1,1,0,0,0,.68-.67c.27-4.46,3.75-7.47,5.79-10.87,2.24-3.72,3.5-8.05,6.5-11.4,1.29-1.45,1.32-4,3.74-4.6.19,0,.47-.4.43-.56-.45-2.06,1-3.06,1.91-4.61,1.7-2.84,3.29-5.73,5.28-8.42a21.37,21.37,0,0,0,3.26-6.05c.58-1.79,1.21-1.52,2.43-1,.66.31,1.27,1.23,2.19.49a79.07,79.07,0,0,0,21.39,11.07,13.43,13.43,0,0,0,1.43.3c.09.65-.43.83-.85,1-2.17,1.06-3.9,2.48-4.18,5.1a1.68,1.68,0,0,1-.38.9c-5.77,6.93-8.8,15.53-14,22.81a36.38,36.38,0,0,0-3.73,6.38c-.93,2.13-3,3.36-4,5.56-2.38,5.33-5.62,10.21-8.75,15.14a3,3,0,0,1-3.17,1.76c-1.71-.18-3.45.22-5.15-.21A110.9,110.9,0,0,1,339.8,252.11Z"/><path class="cls-7" d="M109.41,317a85.2,85.2,0,0,0-21.63-4.28c-4.21-.2-8.36.34-12.54.36,0-1.33,1-1.07,1.74-1.15,1.15-.12,2.29-.31,3.44-.42a4.06,4.06,0,0,0,3-1.89A47.4,47.4,0,0,0,91,296.47a4,4,0,0,1,1-1.41c2.55-2.62,4-6,6.19-8.85.15-.2.37-.4.39-.62.53-4.25,4.23-6.8,5.66-10.62a11.84,11.84,0,0,1,3.86-5.32,4.32,4.32,0,0,0,1.44-2.8,8.23,8.23,0,0,1,3.06-5.2,2.06,2.06,0,0,0,1-1.36c.21-2.09,1.69-2.35,3.34-2.43.44,0,.49-.13.28-.42a124,124,0,0,1,24-1.33c2.19.5,4.43-.16,6.62.36l3.26.11c-.14,1.25-1.17,1-1.9,1-2.29.12-3.5,1.55-4.49,3.37a89.64,89.64,0,0,1-5.84,9.67c-1.85,2.61-2.82,5.82-5,8.22-2.92,3.25-3.71,7.63-6.28,11.08-1.48,2-2.2,4.49-4.25,6.22-1.06.9-.92,2.69-1.69,4-2.7,4.61-6,8.84-8.46,13.62C112.47,315.22,111.85,317.38,109.41,317Z"/><path class="cls-8" d="M285.41,394.88a97.78,97.78,0,0,1-15.78,2.3,162,162,0,0,1-27.07,0,9.12,9.12,0,0,1-1.41-.36c.68-.84,1.64-.67,2.52-.69a63.29,63.29,0,0,1,7.42.17,2.77,2.77,0,0,0,3.34-2.21c.54-2.18,1.93-3.73,3.27-5.43,2-2.57,3.32-5.65,5-8.48,2.07-3.51,4.24-7,6.25-10.51,2.62-4.63,6.14-8.73,8.12-13.75a3.23,3.23,0,0,1,.74-1.27c2.93-2.67,3.55-6.82,6.31-9.63a7.71,7.71,0,0,0,1.6-3.58,4.81,4.81,0,0,1,3.14-3.55,99.1,99.1,0,0,0,16.4,2.95,55.32,55.32,0,0,0,9.37,0l1,0a4.89,4.89,0,0,1-.44,5.73,19.57,19.57,0,0,0-2.36,4.33,6.47,6.47,0,0,1-2.74,3.37c-.58.31-1.33.78-1.33,1.39,0,3.31-2.5,5.49-3.92,8-1.55,2.8-3.17,5.65-4.95,8.38-3,4.56-6.23,9-8.27,14.16a4,4,0,0,1-.74,1.55A25.29,25.29,0,0,0,285.41,394.88Z"/><path class="cls-9" d="M178.83,261.47a72.84,72.84,0,0,1,19.32,7.4c2.77,1.24,2.82,2.15.6,4.31-2.91,2.84-4.77,6.41-6.42,10.07a13.19,13.19,0,0,1-1.44,2.24,13.71,13.71,0,0,0-2.62,5c-.4,2-1.86,3.47-3.15,5a28.12,28.12,0,0,0-3.46,5.67,61.84,61.84,0,0,1-5.32,8.82c-2.44,3.2-4,6.79-6,10.22a134.82,134.82,0,0,1-8.57,13.8,47.78,47.78,0,0,0-4.68,8.37c-1.33,2.84-3.57,4.92-5.38,7.36a.71.71,0,0,1-1.09,0l-14-13.85c.7-1.75,2.66-2.35,3.56-4s1.95-3,2.33-4.87a2,2,0,0,1,.44-1.14c2.64-2.22,3.59-5.71,6.06-8.06a8.45,8.45,0,0,0,2.36-5.32c.1-.82.07-1.76.75-2.3,3.62-2.92,5.12-7.1,6.84-11.19a9.1,9.1,0,0,1,2.47-3.35,15.3,15.3,0,0,0,3.21-4.64,37.33,37.33,0,0,1,4-6.44,23.73,23.73,0,0,0,3.44-6.47,19.84,19.84,0,0,1,4.16-6.86c2.23-2.37,3.32-5.46,4.81-8.29C180.23,262.64,179,262.93,178.83,261.47Z"/><path class="cls-10" d="M288.84,337.92c-1,1.43-2.39,2.46-2.75,4.5-.33,1.79-2.1,3.36-2.88,5-1.64,3.45-4.17,6.27-5.89,9.64a43,43,0,0,1-5.71,9.32c-1.29,1.46-1.82,3.48-3.06,5.08-1.69,2.16-2.72,4.76-4.31,7.06a39.51,39.51,0,0,0-4.06,7.31,9.89,9.89,0,0,1-2.32,3.68,9,9,0,0,0-2.79,4.78c-.39,1.76-1.32,3-3.83,2.69-3.31-.44-6.72-.13-10.09-.14a69.31,69.31,0,0,1-14.32-2c2.42.31,3.62-1.91,4.14-3.2,1.78-4.4,4.54-8.18,7.15-12,1.76-2.57,2.77-5.49,4.73-8a51.57,51.57,0,0,0,6.62-11.69,17,17,0,0,1,2.3-3.75c1.87-2.44,2.4-5.66,4.39-7.86,2.24-2.46,3.22-5.62,5.28-8.1,1.43-1.72,2.1-3.85,3.25-5.67a20.57,20.57,0,0,1,5.38-6.23,76.3,76.3,0,0,0,16.69,8.86Z"/><path class="cls-11" d="M150.61,349.7a42.09,42.09,0,0,0,6.08-8.06c1.58-2.9,2.89-6,4.93-8.66,1.75-2.29,3.13-4.83,4.74-7.19,3.49-5.13,5.31-11.2,9.38-16,1.2-1.42,1.67-3.81,2.81-5,2.73-2.87,3.14-7,6-9.7a10.56,10.56,0,0,0,3.41-5.83,7.33,7.33,0,0,1,3.06-4.7,1.29,1.29,0,0,0,.58-.76c.23-3.95,4.07-6,5-9.65.15-.61.8-.79,1.28-1.11,2.44-1.63,2.49-2.48.29-4.14,5.62,2,10.47,5.46,15.42,8.69.93.61,2.12,1,2.53,2.23-3.23.3-3.65.65-4.59,4a7.49,7.49,0,0,1-1.19,2.44c-4.41,6-7.61,12.7-12,18.73-1.93,2.65-3.1,6-4.9,8.81a16.88,16.88,0,0,1-2.32,3.48,4,4,0,0,0-1.05,1.37c-2.75,7.12-7.57,13.09-11.35,19.61-3.4,5.87-6.43,12-10.61,17.52-1.61,2.09-3.29,4.6-2.71,7.68,0,.1-.21.17-.4.13A154.38,154.38,0,0,1,150.61,349.7Z"/><path class="cls-12" d="M269,114.85a104.84,104.84,0,0,1,19.87,2.85,1.73,1.73,0,0,1-.18,2.29c-2.42,2.48-3.24,5.86-5.07,8.69-3,4.61-6.41,9-8.6,14.08-1.94,4.51-5.32,8.2-7.18,12.81-.75,1.86-2.65,3.2-3.76,5.08-3.77,6.35-7.7,12.6-11.1,19.16-1.13,2.18-2.8,4.07-3.78,6.36-.7,1.63-1.81,1.38-3,.47a101.06,101.06,0,0,0-17.5-10.84c5.2-6,8.9-12.86,12.3-19.94.14-.3.19-.68.43-.88,3.74-3.07,4.71-7.81,7.06-11.71a17.1,17.1,0,0,1,2.64-2.91c1.79-1.88,1.8-4.55,3.33-6.54a105.47,105.47,0,0,0,7.32-11.65,8.78,8.78,0,0,0,.92-2C263.76,116.66,265.4,115.28,269,114.85Z"/><path class="cls-13" d="M365.57,255.58c5.06,1,7.84-1.27,10.26-5.77s4.56-8.89,7.19-13.09c1.22-1.95,2.94-3.69,4.13-5.8,2.23-3.94,4.52-7.88,7.12-11.57,2-2.88,2.91-6.39,5.32-9,.79-.86,1-2.23,1.54-3.34.42-.85.67-1.84,1.85-2.13a1.84,1.84,0,0,0,1.22-1.74c.09-3.69,2.91-4.76,5.58-6L420.21,199c3.24.73,6.53.19,9.79.31,2.7.1,2.87.27,2.06,2.9a15.6,15.6,0,0,1-3,5.33,42.08,42.08,0,0,0-4.4,7.41A16.39,16.39,0,0,1,422,219.3c-2.2,2.18-2.27,5.46-4.17,7.8a65.77,65.77,0,0,0-8.22,13.32c-1.83,3.86-4.62,7.36-7,11a19.36,19.36,0,0,1-1.16,2.16,80.52,80.52,0,0,1-12.92,1.81,156.55,156.55,0,0,1-21.22.52A10.6,10.6,0,0,1,365.57,255.58Z"/><path class="cls-13" d="M285.41,394.88a11.43,11.43,0,0,1,3.78-6.31c2.27-2.13,3.34-5.31,4.56-8.23.15-.37,0-1,.29-1.17,3.17-2.2,3.65-6.38,6.49-8.8a1.83,1.83,0,0,0,.72-1.49,4.32,4.32,0,0,1,1.63-3.21,5.33,5.33,0,0,0,1.9-3.35,3.33,3.33,0,0,1,1.53-2.45,3,3,0,0,0,1.37-3,2.39,2.39,0,0,1,1.14-2.56c2.72-1.19,3.27-3.88,4.57-6.08s2.94-4.52,2.23-7.43a71.54,71.54,0,0,0,34.18-12.95c1.82-.51,1.81.65,1.48,1.78a18.53,18.53,0,0,1-2.43,5.39c-2.76,3.92-5,8.15-7.41,12.26-2.63,4.46-5.58,8.73-8,13.36-1.68,3.22-3.6,6.4-5.31,9.66a2.82,2.82,0,0,1-.87,1.19c-3.33,2-3.74,5.29-4.2,8.62a2.27,2.27,0,0,1-.47.86c-6.78,4.66-14.33,7.72-22.1,10.21C295.57,392.8,290.63,394.49,285.41,394.88Z"/><path class="cls-14" d="M117.21,257.44l2.69.25a25.36,25.36,0,0,1-3.38.67c-1.44.09-2.38.47-2.16,2.18a1.34,1.34,0,0,1-.87,1.38c-2.21,1-2.88,3-3.35,5.14a5,5,0,0,1-2.39,3.69c-1.43.87-2.25,2.87-3.12,4.49-1.18,2.19-1.26,5.06-4.09,6.15a.94.94,0,0,0-.49,1.05c.25,2.95-2.12,4.58-3.25,6.83-1.42,2.83-4.08,4.77-5.22,7.47a80.65,80.65,0,0,1-4.12,8.46,54.33,54.33,0,0,1-4.77,6.46c-.76,1-3.22.62-4.92.87-.85.12-1.84-.34-2.53.56A81.27,81.27,0,0,0,52,320.94c-.52-2.07.48-3.64,1.26-5.49,1.75-4.12,5.15-7.08,7-11.2s4.61-7.81,7.2-11.55a10.55,10.55,0,0,0,1.42-3.15,5,5,0,0,1,1.27-2.64c2.5-1.84,3.5-4.69,4.78-7.21,2.44-4.78,6.29-8.56,8.69-13.31a91.76,91.76,0,0,1,23.84-7.4c2-.45,4-.55,6-1l0,0c1-.54,2.09.17,3-.47Z"/><path class="cls-15" d="M109.41,317c2.15-1,3-3,4.06-4.95,1.73-3.15,3.79-6.1,5.73-9.12,1.16-1.8,2.77-3.46,2.81-5.86a2.43,2.43,0,0,1,.75-1.51c3.84-3.69,6-8.34,7.82-13.21.68-1.79,2.34-3.15,3.43-4.82,1.26-1.92,2.11-4.06,3.41-5.89,1.65-2.32,3-4.79,4.55-7.16a38.72,38.72,0,0,0,2.25-4c.86-1.75,2.07-3.48,4.49-3.45.79,0,1.67.27,2.35-.43A68.34,68.34,0,0,1,163,257.94a.58.58,0,0,0,.37.29c1.42.14,3.54-.22,3.77,1.39a5.7,5.7,0,0,1-2.06,5.52,3,3,0,0,0-1.61,2.8,2.39,2.39,0,0,1-1.18,2.07,8.66,8.66,0,0,0-3.37,5.28,9.57,9.57,0,0,1-2.08,3.33c-3.47,4.44-5.7,9.61-8.59,14.39a8.35,8.35,0,0,1-2.42,3.07c-.28.18-.63.44-.63.74,0,4.26-3.88,6.28-5.58,9.57s-3.23,7.09-5.55,10.07-3.48,6.48-5.64,9.46c-.77,1.07-1.61,1.32-2.69.52A95.9,95.9,0,0,0,109.41,317Z"/><path class="cls-16" d="M401.37,253.58c-.36-1.15-.58-2.2.93-2.8,1.28-.5.88-2,1.56-2.95,1.79-2.41,3.9-4.7,5.1-7.39.93-2.07,2.36-4,2.77-6.23.38-2.06,2.11-3.1,3.17-4.52,1.81-2.42,3.88-4.54,4.38-7.67a2.32,2.32,0,0,1,.58-1.06c3.29-3.82,5.2-8.46,7.75-12.72,1.31-2.18,3.26-3.9,4-6.53.48-1.71.39-2.25-1.45-2.2-2.55.08-5.12,0-7.67,0-.79,0-1.69.3-2.28-.56,10.7.65,21.23.06,31.33-4a101.17,101.17,0,0,0,13.73-7c1,1.15.42,2.24-.34,3.09-2.8,3.15-4.48,7-6.55,10.59-4.39,7.53-9.42,14.7-13.23,22.57a10.72,10.72,0,0,1-1.63,2.17c-1.38,1.65-2.71,3.35-2.91,5.61-.14,1.47-1.46,2.15-2.12,3.27a45.82,45.82,0,0,0-3.88,7.41A99.08,99.08,0,0,1,401.37,253.58Z"/><path class="cls-11" d="M246.25,186.64c1.34.51,2,.28,2.73-1.26,1.65-3.44,4.11-6.51,5.64-10,1.83-4.17,5.2-7.38,6.66-11.73A18,18,0,0,1,265,158c2.18-2.54,3.17-5.68,5.11-8.18,3.49-4.53,5.38-9.91,8.55-14.62,2.49-3.71,5.6-7.18,6.92-11.67.64-2.16,3.11-3.4,3.33-5.87a3,3,0,0,1,2,.51,10.62,10.62,0,0,0,4.39,1.06c3.83.56,7.31,2.19,10.9,3.49-1.48,1.23-2.76,2.63-3,4.64-.17,1.7-1.82,2.2-2.56,3.49-2.15,3.69-3.84,7.62-6.7,11a20,20,0,0,0-3.9,7.71,6,6,0,0,1-2.81,3.71,4,4,0,0,0-2,2.61c-.38,2.14-1.92,3.56-2.78,5.34-2.38,4.93-6.39,8.92-8,14.27-.13.45-.43,1.12-.76,1.2-2,.45-2.41,2.14-2.71,3.67-.82,4.07-3.85,6.77-6,10-.9,1.37-2.12,2.51-2,4.36a1.27,1.27,0,0,1-.53,1c-1.81.93-1.5,2.7-1.8,4.24Z"/><path class="cls-17" d="M230.91,291.54c.28,1.53-.79,2.7-1.49,3.68-3.06,4.25-5.15,9.15-8.34,13.22-2.26,2.9-2.36,7-5.74,9.17a2.71,2.71,0,0,0-.73,2,2.91,2.91,0,0,1-1.7,2.75c-1.11.61-1.19,1.85-1.63,2.9-1.72,4-4.79,7.25-6.78,11.06-1.72,3.31-4.92,5.79-5.42,9.76a1.42,1.42,0,0,1-.45.85c-3.78,2.87-4.13,7.83-6.84,11.27-1.93,2.46-3.29,5.21-4.95,7.8a61.89,61.89,0,0,0-3.53,5.83c-.88,1.76-2,2.94-4,3.14A71.38,71.38,0,0,1,169,367a2.18,2.18,0,0,1,.56-.44c2.36-1,3.12-3.41,4.15-5.37,1.95-3.68,4.16-7.17,6.42-10.66,3.16-4.88,5.75-10.08,8.57-15.16a36.82,36.82,0,0,1,4.66-6.61c.28-.31.71-.56.79-.94.65-3.34,3.28-5.65,4.47-8.71a1.81,1.81,0,0,1,.17-.46c2.73-3.49,4.67-7.48,7-11.22,2-3.3,4.45-6.41,5.53-10.24.2-.71.28-1.52,1-1.87,2.41-1.1,3.22-3.34,4.14-5.54,1-2.47,2-5,3.94-6.94A59.52,59.52,0,0,1,230.91,291.54Z"/><path class="cls-18" d="M269,114.85c-2.07.08-2.9,2.39-4.85,2.75-.24.05-.51.66-.53,1-.18,3-2.26,5.15-3.53,7.67-1.74,3.43-5,6.13-6,9.59-1.32,4.45-5.25,6.85-6.83,10.88-.17.44-.38.88-.56,1.33-1,2.4-1.63,5.06-4.17,6.48-.14.07-.32.18-.36.32-1.09,3.82-3.66,6.89-5.34,10.41-.07.14,0,.39-.08.48-3.22,2.9-3.41,8.22-8,10-.49,0-1,.08-1.39-.37-1.29-1.1-3-1.12-4.48-1.65a81.15,81.15,0,0,0-32.16-2c-.11-1,.72-.95,1.32-1.16,5.3-.79,10.61-1.52,16-.61a4.7,4.7,0,0,0,5.17-2.51,34.39,34.39,0,0,0,3.59-6.44c1.3-3.71,4.16-6.51,5.9-10a16.5,16.5,0,0,0,1.77-3.78,2.79,2.79,0,0,1,1.09-1.9c2.22-1.26,2.89-3.49,3.7-5.64a7.91,7.91,0,0,1,1.82-2.63,4.83,4.83,0,0,0,1.6-2.46c.32-2,1.69-3.25,3-4.64,1.83-1.9,2.77-4.46,3.76-6.86a35.85,35.85,0,0,1,2.73-5.52,5.13,5.13,0,0,1,4.94-2.67,16.5,16.5,0,0,0,3.91-.1c.33-.08-.08-.39.06-.09,0,.09,0,.16-.2.15-1.11-.07-2.28.37-3.35-.27,5.75-.77,11.52-.4,17.28-.2C266.22,114.54,267.62,114.73,269,114.85Z"/><path class="cls-19" d="M83.58,266.39a.69.69,0,0,1,.14,1.21c-2.09,2.07-2.46,5.38-5.32,7-1.26.71-1,2.69-1.78,4-1.13,1.92-3.29,3.31-3,5.94a.53.53,0,0,1-.26.41c-4.35,2-3.65,7.35-6.55,10.18-2.7,2.64-3.12,6.64-6,9a1.59,1.59,0,0,0-.5.84c-.54,2.8-2.89,4.53-4.06,6.77-1.34,2.54-4.36,4.65-3.58,8.2.06.28-.42.67-.64,1-11.75,6.93-21.48,16.12-29.89,26.78a6.66,6.66,0,0,1-1.07,1c-.08.06-.29-.06-.53-.11,5.37-20,13.18-38.84,26.6-54.92A94,94,0,0,1,83.58,266.39Z"/><path class="cls-20" d="M125.72,326.44c1.61.56,2.23-.74,2.8-1.71a27.12,27.12,0,0,0,2-4.45,3.74,3.74,0,0,1,1.7-2.31c.95-.48,1.17-1.37,1.57-2.32a40.48,40.48,0,0,1,2.71-5.18c2.22-3.73,4-7.77,7.45-10.67.12-.11.27-.3.25-.42-.74-3.86,3.26-5.14,4.38-8.05s3.14-5.77,4.54-8.76c.66-1.42,2-2.55,3-3.83,1.61-2,2.23-4.51,3.42-6.72.68-1.25,2.41-2,2.47-2.63.25-2.92,2.8-4.26,3.77-6.51.44-1,1.7-2.37.74-3.61-.81-1-2.56-.32-3.56-1.33a30.14,30.14,0,0,1,8,1.53,10,10,0,0,0,4.4,1c1.33-.32,2.16,1.17,3.47,1,3.12,1.62,3,1.58,1.26,4.94a28.09,28.09,0,0,1-5.5,7.57c-1.55,1.51-1.18,4-2.56,5.79-1.12,1.43-1.36,4.08-2.37,4.83-3.21,2.35-3.71,6.13-5.73,9-1.13,1.62-2.89,2.64-3.72,4.47-1.23,2.71-2.52,5.4-3.79,8.09-.21.45-.32,1.06-.68,1.3-2.83,1.92-3.88,4.78-4.44,8-.35,2-2.19,3-3.29,4.48a127.41,127.41,0,0,0-7.81,13c-.86,1.53-2.38,1.94-3.55,2.92Z"/><path class="cls-21" d="M192.21,171.25c-.56,0-1.16-.05-1.49.56a79.54,79.54,0,0,0-23.79,9.3c-1.35-1-.87-2.23-.17-3.28,2.38-3.56,4.48-7.3,6.61-11,3.64-6.29,8.24-12,11.32-18.58,1.45-3.08,4.37-5.43,4.61-9.1a1.74,1.74,0,0,1,.78-1.22c3.43-2.53,4.16-7,7-9.92a2.48,2.48,0,0,0,.46-1.39,85.3,85.3,0,0,1,23.79-8.41c1.65-.59,2.13.18,2,1.68a2.67,2.67,0,0,1-.57,1.36c-4.27,5.25-6.6,11.71-10.67,17.08-1.22,1.6-1.43,3.63-2.55,5.32-2.66,4-5.17,8.15-7.7,12.23-3,4.86-5.83,9.86-8.93,14.67A6.52,6.52,0,0,1,192.21,171.25Z"/><path class="cls-22" d="M197.59,126.63c1.33,1.87-.45,3.08-1.33,3.91a13.3,13.3,0,0,0-2.79,4.48c-.63,1.32-1.08,2.82-2.83,3.18a1,1,0,0,0-.69.63c-1,5.64-5.46,9.57-7.35,14.78-.34.95-1.31,1.66-1.9,2.54-1.73,2.58-3.57,5.18-5.07,7.79-2.2,3.84-4.83,7.46-6.67,11.5a7.85,7.85,0,0,1-1.29,2.06,3.21,3.21,0,0,0-.74,3.61,110.38,110.38,0,0,0-27.45,25.79,9.19,9.19,0,0,1-1.12.94,166.8,166.8,0,0,1,6.21-19.79c6.32-16.52,15-31.53,27.85-43.93A88.58,88.58,0,0,1,197.59,126.63Z"/><path class="cls-23" d="M192.21,171.25c.47-1.68,1.64-3.05,2.27-4.59,1.77-4.37,5.09-7.69,7.37-11.68,1.77-3.09,2.65-6.59,5.66-9.13,1.09-.91,2.11-3.18,2.75-5.15.83-2.57,3-4.68,4.06-7.21,1.17-2.82,3.73-4.74,4.43-7.91.34-1.57,2.25-2.75,3.24-4.25.69-1.06,2.28-2.61-.61-3.11a79.07,79.07,0,0,1,19.21-3c.85-.39,1.8,0,2.65-.35l4.32-.17,3.63.18v.3a7.26,7.26,0,0,1-1.67.07c-4-.73-6.37,1.41-8,4.63-1.4,2.82-2.53,5.77-3.78,8.66-.1.22-.11.58-.27.67-3.55,1.94-3.66,6.33-6.37,8.86a6.9,6.9,0,0,0-1.35,2.26c-.9,1.86-.78,4.47-3.52,5.21-.52.14-1,1.13-1.16,1.8-.68,3.11-2.47,5.61-4.34,8a18.82,18.82,0,0,0-3.3,6c-.9,3.05-3.15,5.15-4.51,7.84-1,1.95-3.12,1.84-4.82,1.53C202.75,169.75,197.49,170.56,192.21,171.25Z"/><path class="cls-24" d="M434.61,242.73a7.26,7.26,0,0,1,1.67-5c2.27-2.83,3.36-6.32,5.22-9.35s3.82-5.83,5.57-8.85c2.09-3.6,3.91-7.41,6.41-10.69s3.12-7.4,6.35-10c.25-.2.62-.47.64-.73.24-3.45,3.1-5.4,4.58-8.13a5.15,5.15,0,0,0,.22-1.92A110.11,110.11,0,0,0,484,171.6c2.42-2.67,4.7-5.45,7.21-8.38a2.19,2.19,0,0,1,.16,2c-4.84,17.54-11.72,34.13-22.71,48.79a98.39,98.39,0,0,1-31.81,27.72C436.14,242.13,435.36,242.4,434.61,242.73Z"/><path class="cls-25" d="M322.59,381c-.68-2.62,1.15-4.88,1.06-7.42,0-.51.43-.86,1-1,3.15-.84,3.45-3.84,4.53-6.18a6.17,6.17,0,0,1,.67-1.48c3.25-3.86,5-8.59,7.64-12.81.51-.83.78-1.83,2-2,.27-.05.72-.39.71-.59-.09-3.17,2.39-5.06,3.8-7.43s2.42-5.12,4.42-7.31c1.3-1.41,1.7-3.64,2.5-5.51.47-1.08-.23-1.28-1.05-1.38a124.34,124.34,0,0,0,23.85-23.56,109.92,109.92,0,0,1-5.36,18.19,129.18,129.18,0,0,1-17.62,33,40.81,40.81,0,0,1-5.58,6.59,3.15,3.15,0,0,0-1.22,1.43,37.26,37.26,0,0,1-6.46,6.4,2.33,2.33,0,0,0-1.05,1A64.39,64.39,0,0,1,322.59,381Z"/><path class="cls-5" d="M220.45,282.87c-.84,2.85-2.69,5.21-3.67,8.05-.6,1.74-1.33,4-3.83,4.91-1.6.56-1.26,2.94-2.09,4.4-.66,1.16-.5,2.77-2.23,3.22a1,1,0,0,0-.47.8c.26,2.65-2.38,3.69-3.24,5.76a19.19,19.19,0,0,0-1.37,3c-.48,1.92-2.76,2.73-3.32,4.63-1,3.28-4,5.41-4.72,8.86a6.8,6.8,0,0,1-2,3,49.26,49.26,0,0,0-5.73,8.64c-1.34,2.3-2.07,5-3.51,7.07s-2.48,4.36-4.12,6.18-1.81,4.15-3.35,5.8c-2.59,2.79-3.12,6.85-6,9.48-.53.49-.89.62-1.47.3a11.05,11.05,0,0,0-1.47-1,10,10,0,0,1-2.93-2.49c-1.45-3.47,1.13-6,2.63-8.29,2.06-3.15,3.9-6.4,5.81-9.62,4.36-7.35,8.81-14.63,13.21-22,2.14-3.57,4-7.33,6.42-10.73,3.21-4.54,5.18-9.79,8.6-14.22,2.23-2.88,3.78-6.28,5.65-9.44a17.1,17.1,0,0,1,1.26-1.8c1.21-1.55,2.41-3,2.54-5.19s2.77-3.48,5-2.51A23.71,23.71,0,0,1,220.45,282.87Z"/><path class="cls-13" d="M314.61,340.88a21.93,21.93,0,0,1-9.37,0Z"/><path class="cls-15" d="M175.36,260.5c-1.65.91-3-.39-4.49-.63,0,0-.07-.14-.05-.21a.62.62,0,0,1,.14-.19A14.85,14.85,0,0,1,175.36,260.5Z"/><path class="cls-12" d="M295.29,119.27c-1.64.86-3-.41-4.48-.65a.27.27,0,0,1-.05-.21.81.81,0,0,1,.14-.2A13.9,13.9,0,0,1,295.29,119.27Z"/><path class="cls-15" d="M147.8,256.47c-2.21-.11-4.45.52-6.62-.36C143.4,256.09,145.62,255.83,147.8,256.47Z"/><path class="cls-7" d="M113.39,258a12.49,12.49,0,0,1-6,1A16,16,0,0,1,113.39,258Z"/><path class="cls-12" d="M222.88,173.78c1.68.05,3.34.14,4.48,1.65Z"/><path class="cls-1" d="M272.55,211.91a2.11,2.11,0,0,1,1.94,2Z"/><path class="cls-7" d="M116.38,257.51c-.89.91-2,.37-3,.47A5.09,5.09,0,0,1,116.38,257.51Z"/><path class="cls-2" d="M346.25,147.49a2.11,2.11,0,0,1-1.84-1.65A3.19,3.19,0,0,1,346.25,147.49Z"/><path class="cls-18" d="M243.24,114.87c-.81.7-1.76.31-2.65.35A4.39,4.39,0,0,1,243.24,114.87Z"/><path class="cls-13" d="M343.87,363.58c-.28-1.05.5-1.22,1.22-1.43A2.89,2.89,0,0,1,343.87,363.58Z"/><path class="cls-11" d="M167.93,366.05c1-.47,1,.57,1.47,1H169Z"/><path class="cls-13" d="M336.36,371c-.16-.87.14-1.26,1.05-1A1.83,1.83,0,0,1,336.36,371Z"/></svg>