<svg id="Слой_1" data-name="Слой 1" xmlns="http://www.w3.org/2000/svg" viewBox="0 0 512 512"><defs><style>.cls-1{fill:#007acb;}.cls-2{fill:#fdfefe;}.cls-3{fill:#fefefe;}</style></defs><path class="cls-1" d="M28.67,20.32H483.33a10,10,0,0,1,10,10V481.68a10,10,0,0,1-10,10H28.67a10,10,0,0,1-10-10V30.32A10,10,0,0,1,28.67,20.32ZM184.49,450l.31.33,42.71.05a3.26,3.26,0,0,0,.83-.27V276h61.31V237.68c-55.67-.77-111-.42-166.66.14v38.24h61.44V447.49C184.43,448.34,184.47,449.19,184.49,450Zm116.58-41.76c1.43,3.7,8.88,14.46,12.87,18.62,9.83,10.26,21.92,16.8,35.24,21.48,10.56,3.72,21.49,4.58,32.52,4.75a111.31,111.31,0,0,0,12.89-.76,79.69,79.69,0,0,0,25.18-6.76c20.91-9.47,32.71-25.4,34.48-48.38a78.05,78.05,0,0,0-.8-16.52c-1.76-13-7.05-24.11-16.53-33.22a78.2,78.2,0,0,0-19.47-13.65c-11.58-5.76-23.42-11-35.06-16.64-5.48-2.67-11.06-5.33-16-8.81-6.61-4.62-9.67-11.22-8.33-19.5a17,17,0,0,1,8.58-12.62c5.73-3.33,12-3.45,18.3-2.52,7.77,1.13,13.63,5.37,18.12,11.64,1.06,1.49,2.16,3,3.23,4.46.9,1.25,1.76,1.56,3.24.57,9.17-6.13,18.42-12.17,27.62-18.26,1.4-.93,2.7-2,4.1-3.06a18.89,18.89,0,0,0-1.48-2.57c-4.18-5-8.08-10.37-12.68-15-6.86-6.9-15.32-11.13-24.79-13.78a80.23,80.23,0,0,0-15.67-2.53c-4.33-.32-8.72.08-13.07-.07a55,55,0,0,0-18.1,2.76c-22.61,6.88-38.94,25.66-40.67,49-.56,7.53-.63,15.16,1.11,22.48a58.24,58.24,0,0,0,9.81,20.39c6.28,8.7,14.58,15.17,24,20,10.45,5.38,21.31,9.93,31.87,15.09A230.53,230.53,0,0,1,402,375.81c11.27,7,11.57,25.88-1.41,33.29a42.14,42.14,0,0,1-18.93,5.12,45.61,45.61,0,0,1-9.52-.78c-7.07-1.1-13.68-3.4-19.27-8.06a68.68,68.68,0,0,1-13-13.9c-.91-1.34-1.95-2.61-3-4Z"/><path class="cls-2" d="M301.07,408.28l35.84-20.75c1,1.34,2.06,2.61,3,4a68.68,68.68,0,0,0,13,13.9c5.59,4.66,12.2,7,19.27,8.06a45.61,45.61,0,0,0,9.52.78,42.14,42.14,0,0,0,18.93-5.12c13-7.41,12.68-26.28,1.41-33.29a230.53,230.53,0,0,0-20.47-10.94c-10.56-5.16-21.42-9.71-31.87-15.09-9.42-4.85-17.72-11.32-24-20a58.24,58.24,0,0,1-9.81-20.39c-1.74-7.32-1.67-14.95-1.11-22.48,1.73-23.32,18.06-42.1,40.67-49a55,55,0,0,1,18.1-2.76c4.35.15,8.74-.25,13.07.07a80.23,80.23,0,0,1,15.67,2.53c9.47,2.65,17.93,6.88,24.79,13.78,4.6,4.63,8.5,10,12.68,15a18.89,18.89,0,0,1,1.48,2.57c-1.4,1-2.7,2.13-4.1,3.06-9.2,6.09-18.45,12.13-27.62,18.26-1.48,1-2.34.68-3.24-.57-1.07-1.49-2.17-3-3.23-4.46-4.49-6.27-10.35-10.51-18.12-11.64-6.31-.93-12.57-.81-18.3,2.52A17,17,0,0,0,358,288.89c-1.34,8.28,1.72,14.88,8.33,19.5,5,3.48,10.54,6.14,16,8.81,11.64,5.65,23.48,10.88,35.06,16.64a78.2,78.2,0,0,1,19.47,13.65c9.48,9.11,14.77,20.26,16.53,33.22a78.05,78.05,0,0,1,.8,16.52c-1.77,23-13.57,38.91-34.48,48.38a79.69,79.69,0,0,1-25.18,6.76,111.31,111.31,0,0,1-12.89.76c-11-.17-22-1-32.52-4.75-13.32-4.68-25.41-11.22-35.24-21.48C310,422.74,302.5,412,301.07,408.28Z"/><path class="cls-3" d="M184.49,450c0-.85-.06-1.7-.06-2.55V276.06H123V237.82c55.63-.56,111-.91,166.66-.14V276H228.34V450.15a3.26,3.26,0,0,1-.83.27l-42.71-.05Z"/></svg>