<svg id="Слой_1" data-name="Слой 1" xmlns="http://www.w3.org/2000/svg" xmlns:xlink="http://www.w3.org/1999/xlink" viewBox="0 0 512 512"><defs><style>.cls-1{fill:url(#Безымянный_градиент_3);}.cls-2{fill:url(#Безымянный_градиент_2);}</style><linearGradient id="Безымянный_градиент_3" x1="137.95" y1="545.75" x2="413.69" y2="171.28" gradientTransform="matrix(1, 0, 0, -1, 0, 514)" gradientUnits="userSpaceOnUse"><stop offset="0" stop-color="#41d1ff"/><stop offset="1" stop-color="#bd34fe"/></linearGradient><linearGradient id="Безымянный_градиент_2" x1="267.98" y1="488.85" x2="317.86" y2="146.69" gradientTransform="matrix(1, 0, 0, -1, 0, 514)" gradientUnits="userSpaceOnUse"><stop offset="0" stop-color="#ffea83"/><stop offset="0.08" stop-color="#ffdd35"/><stop offset="1" stop-color="#ffa800"/></linearGradient></defs><path class="cls-1" d="M490.26,89.78,268.71,486a12,12,0,0,1-21,.09L21.79,89.82A12,12,0,0,1,34.37,72l221.79,39.64a12.07,12.07,0,0,0,4.28,0L477.59,72.06A12,12,0,0,1,490.26,89.78Z"/><path class="cls-2" d="M361.81,20,197.86,52.13A6,6,0,0,0,193,57.68L182.92,228a6,6,0,0,0,7.36,6.22l45.65-10.54a6,6,0,0,1,7.25,7.08l-13.56,66.4a6,6,0,0,0,7.65,7l28.19-8.57a6,6,0,0,1,7.65,7L251.55,406.88c-1.34,6.52,7.33,10.08,10.95,4.49l2.42-3.74L398.52,141A6,6,0,0,0,392,132.4l-47,9.07a6,6,0,0,1-6.93-7.58L368.75,27.58A6,6,0,0,0,361.81,20Z"/></svg>