<svg id="Слой_1" data-name="Слой 1" xmlns="http://www.w3.org/2000/svg" viewBox="0 0 512 512"><defs><style>.cls-1{fill:#41b783;}.cls-2{fill:#34495e;}</style></defs><path class="cls-1" d="M491.59,52.38c-3.17,4.72-5.8,9.75-8.64,14.65q-75.57,130.84-151.09,261.7l-74.3,128.74c-.45.79-.92,1.56-1.56,2.64-.51-.83-.91-1.46-1.28-2.1L118.34,221.77,21.28,53.64c-.26-.44-.58-.84-.87-1.26.44-.82,1.19-.36,1.77-.36q46.23,0,92.47,0,7.26,12.66,14.54,25.32l23.92,41.42q10.83,18.75,21.65,37.52,11.9,20.63,23.83,41.24,11.41,19.77,22.82,39.56l22.92,39.73c3.56,6.17,7.13,12.33,10.66,18.51.76,1.34,1.28,1.34,2,0,1.18-2.18,2.44-4.33,3.68-6.48l22.83-39.55,23.92-41.42q10.83-18.75,21.64-37.52Q341,149.7,352.91,129.08q11.41-19.77,22.82-39.56Q386.54,70.76,397.35,52q46.25,0,92.47,0C490.4,52,491.15,51.56,491.59,52.38Z"/><path class="cls-2" d="M397.35,52q-10.8,18.76-21.62,37.53-11.42,19.78-22.82,39.56Q341,149.71,329.07,170.32q-10.83,18.77-21.64,37.52l-23.92,41.42-22.83,39.55c-1.24,2.15-2.5,4.3-3.68,6.48-.73,1.34-1.25,1.34-2,0-3.53-6.18-7.1-12.34-10.66-18.51l-22.92-39.73Q210,217.27,198.59,197.49q-11.91-20.62-23.83-41.24-10.83-18.75-21.65-37.52L129.19,77.31Q121.9,64.66,114.65,52h87.16c-.13.53.27.86.49,1.24q26.44,45.84,52.93,91.68c.21.35.26.91,1,.92.25-.41.52-.85.77-1.29Q282.1,101,307.23,57.45a33.85,33.85,0,0,0,3-5.46Z"/></svg>