<svg id="Слой_1" data-name="Слой 1" xmlns="http://www.w3.org/2000/svg" viewBox="0 0 512 512"><defs><style>.cls-1{fill:#fff;}.cls-2{fill:#8ed6fb;}.cls-3{fill:#1c78c0;}</style></defs><path class="cls-1" d="M253.43,18.27,461.85,136.18V372L253.43,489.9,45,372V136.18Z"/><path class="cls-2" d="M425,363.86,260.64,456.81V384.42L363,328.09Zm11.25-10.18V159.29L376.07,194v125l60.14,34.74ZM81.89,363.86l164.33,92.95V384.42L143.83,328.09,81.89,363.86ZM70.65,353.68V159.29L130.78,194v125L70.65,353.68Zm7-207L246.22,51.36v70l-108,59.39-.82.47Zm351.48,0L260.64,51.36v70l108,59.39.83.47Z"/><path class="cls-3" d="M246.22,371.13l-101-55.53v-110l101,58.32V371.13m14.42,0,101-55.53v-110l-101,58.32V371.13M152.05,192.81,253.45,137l101.4,55.77-101.4,58.57-101.4-58.57"/></svg>