<svg id="Слой_1" data-name="Слой 1" xmlns="http://www.w3.org/2000/svg" viewBox="0 0 512 512"><defs><style>.cls-1{fill:#21759b;}</style></defs><path class="cls-1" d="M256,22.19C127.08,22.19,22.19,127.08,22.19,256S127.08,489.81,256,489.81,489.81,384.91,489.81,256,384.92,22.19,256,22.19ZM45.79,256A209.08,209.08,0,0,1,64,170.45L164.26,445.17A210.23,210.23,0,0,1,45.79,256ZM256,466.21a210.28,210.28,0,0,1-59.37-8.54L259.7,274.39l64.62,177a18.24,18.24,0,0,0,1.5,2.88A209.15,209.15,0,0,1,256,466.21Zm29-308.78c12.66-.66,24.06-2,24.06-2,11.32-1.34,10-18-1.35-17.33,0,0-34,2.67-56,2.67-20.67,0-55.37-2.67-55.37-2.67-11.33-.67-12.66,16.64-1.33,17.33,0,0,10.72,1.33,22.05,2l32.75,89.75-46,138L127.22,157.43c12.67-.66,24.05-2,24.05-2,11.29-1.34,10-18-1.35-17.33,0,0-34,2.67-56,2.67-3.94,0-8.59-.08-13.53-.26A210.19,210.19,0,0,1,398,101c-.9-.07-1.79-.19-2.73-.19-20.65,0-35.3,18-35.3,37.32,0,17.33,10,32,20.65,49.3,8,14,17.34,32,17.34,58,0,18-6.93,38.85-16,68l-21,70Zm155.5-2.28A210.25,210.25,0,0,1,361.7,437.7l64.2-185.64c12-30,16-54,16-75.27A160.42,160.42,0,0,0,440.46,155.15Z"/></svg>