<?xml version="1.0" standalone="no"?>
<!DOCTYPE svg PUBLIC "-//W3C//DTD SVG 20010904//EN"
 "http://www.w3.org/TR/2001/REC-SVG-20010904/DTD/svg10.dtd">
<svg version="1.0" xmlns="http://www.w3.org/2000/svg"
 width="1348.000000pt" height="1348.000000pt" viewBox="0 0 1348.000000 1348.000000"
 preserveAspectRatio="xMidYMid meet">
<metadata>
Created by potrace 1.14, written by Peter Selinger 2001-2017
</metadata>
<g transform="translate(0.000000,1348.000000) scale(0.100000,-0.100000)"
fill="#000000" stroke="none">
<path d="M2672 11363 c-110 -188 -212 -366 -212 -374 0 -5 -5 -9 -11 -9 -5 0
-7 -4 -4 -10 3 -5 2 -10 -3 -10 -5 0 -12 -8 -15 -17 -4 -10 -17 -36 -30 -58
-13 -22 -65 -112 -116 -200 -50 -88 -96 -167 -101 -175 -6 -8 -17 -29 -25 -46
-7 -17 -21 -36 -29 -44 -9 -7 -16 -21 -16 -31 0 -11 -4 -19 -9 -19 -5 0 -14
-12 -20 -27 -6 -16 -32 -62 -56 -103 -25 -41 -50 -84 -55 -95 -6 -11 -14 -27
-20 -35 -33 -52 -120 -202 -120 -209 0 -5 -7 -14 -15 -21 -8 -7 -13 -16 -10
-20 2 -4 -5 -16 -15 -28 -11 -12 -20 -23 -20 -26 0 -9 -135 -241 -142 -244 -4
-2 -8 -12 -8 -23 0 -10 -4 -19 -10 -19 -5 0 -10 -5 -10 -11 0 -6 -8 -23 -19
-37 -19 -28 -77 -131 -95 -169 -6 -13 -14 -23 -18 -23 -5 0 -8 -4 -8 -10 0 -5
-14 -33 -31 -62 -18 -29 -39 -66 -49 -83 -9 -16 -32 -56 -51 -88 -49 -84 -45
-76 -157 -272 -57 -99 -108 -187 -113 -195 -15 -25 -180 -311 -207 -360 -14
-25 -47 -83 -74 -130 -27 -47 -53 -92 -58 -100 -5 -8 -39 -67 -76 -130 -37
-63 -75 -131 -86 -150 -10 -19 -27 -48 -37 -65 -10 -16 -30 -52 -45 -80 -16
-27 -33 -55 -38 -62 -5 -7 -17 -27 -27 -45 -10 -18 -28 -51 -41 -73 -13 -22
-33 -58 -44 -80 -12 -22 -24 -42 -27 -45 -3 -3 -14 -21 -24 -40 -10 -19 -21
-37 -24 -40 -3 -3 -14 -21 -24 -40 -9 -19 -25 -48 -35 -65 -10 -16 -31 -52
-46 -80 -16 -27 -32 -54 -36 -60 -4 -5 -25 -41 -45 -80 -21 -38 -43 -73 -48
-76 -11 -8 -8 -16 32 -84 17 -27 40 -66 51 -85 11 -19 29 -48 40 -65 11 -16
23 -38 26 -47 4 -10 11 -18 16 -18 5 0 7 -4 4 -9 -3 -5 1 -14 9 -21 8 -7 15
-16 15 -21 0 -4 14 -28 30 -52 17 -25 30 -50 30 -56 0 -6 5 -11 10 -11 6 0 10
-6 10 -13 0 -8 13 -32 28 -53 16 -21 35 -54 43 -71 7 -18 17 -33 21 -33 5 0 8
-4 8 -10 0 -5 16 -36 36 -67 20 -32 43 -69 52 -83 9 -14 15 -27 15 -30 0 -3 7
-16 17 -30 31 -44 160 -262 160 -271 0 -5 3 -9 8 -9 4 0 12 -10 18 -23 19 -38
49 -92 54 -97 5 -4 108 -174 170 -281 8 -14 40 -67 70 -118 30 -50 64 -106 75
-125 11 -19 34 -58 52 -87 17 -30 33 -58 34 -64 2 -5 10 -18 19 -28 9 -9 23
-30 31 -45 15 -29 103 -177 119 -202 6 -8 13 -23 16 -32 4 -10 10 -18 15 -18
5 0 8 -3 7 -7 -2 -7 31 -64 80 -139 7 -10 18 -30 25 -44 7 -14 25 -44 40 -67
15 -24 27 -47 27 -53 0 -5 5 -10 10 -10 6 0 10 -4 10 -8 0 -5 52 -94 115 -200
63 -105 115 -196 115 -201 0 -5 4 -11 8 -13 8 -3 203 -326 231 -381 7 -15 17
-27 22 -27 5 0 8 -3 8 -7 -1 -5 -1 -15 0 -23 1 -16 70 88 71 108 0 6 5 12 10
12 6 0 10 4 10 10 0 5 25 50 55 101 30 50 55 93 55 95 0 2 26 48 58 101 32 54
61 105 65 113 4 8 16 29 27 45 10 17 31 53 45 80 14 28 35 64 45 80 20 33 100
171 113 195 4 8 21 38 38 65 16 28 33 58 36 68 3 9 9 17 14 17 5 0 9 4 9 9 0
8 121 223 158 281 9 14 17 28 17 32 0 4 6 13 13 20 6 6 12 18 12 25 0 7 4 13
9 13 5 0 11 8 14 17 7 21 10 27 233 408 13 22 29 52 36 68 7 15 16 27 20 27 4
0 8 4 8 10 0 5 20 44 45 86 25 41 45 77 45 80 0 2 16 29 36 60 30 47 34 60 25
78 -36 71 -264 450 -273 454 -5 2 -8 8 -8 13 0 6 -38 73 -85 150 -47 77 -85
142 -85 144 0 2 -26 46 -58 97 -31 51 -66 110 -77 131 -11 20 -23 37 -27 37
-5 0 -8 5 -8 11 0 6 -13 30 -29 54 l-29 43 47 79 c26 44 56 96 66 117 11 21
24 46 30 57 5 10 13 19 17 19 5 0 8 4 8 9 0 5 23 48 50 96 28 48 50 89 50 93
0 3 6 13 14 21 7 9 26 41 42 71 16 30 31 57 34 60 10 10 41 65 47 83 3 9 9 17
14 17 5 0 9 9 9 20 0 11 4 20 8 20 9 0 29 37 30 54 0 5 4 12 10 15 5 3 20 26
34 51 45 80 114 200 194 336 30 51 54 97 54 103 0 6 3 11 8 11 4 0 12 10 18
23 31 61 48 92 53 97 3 3 17 25 30 50 14 25 29 48 34 51 5 3 7 8 6 10 -3 4 59
114 100 179 8 14 16 27 16 30 0 3 32 59 71 125 39 66 84 143 100 170 15 28 33
53 39 57 5 4 7 8 3 8 -4 0 6 24 24 53 44 75 139 238 155 267 8 14 28 48 44 75
16 28 35 61 42 75 6 14 14 27 17 30 3 3 11 15 18 28 6 12 18 32 25 45 6 12 14
24 17 27 6 6 50 86 65 117 5 13 13 23 18 23 4 0 7 6 7 13 1 6 23 48 50 92 27
44 61 104 76 133 15 28 31 52 36 52 5 0 7 4 4 9 -3 5 1 14 9 21 8 7 12 16 9
21 -3 5 0 9 5 9 6 0 11 4 11 9 0 5 20 42 43 82 24 41 67 113 95 162 29 48 52
89 52 91 0 2 25 45 55 95 30 51 55 96 55 101 0 4 3 10 8 12 4 2 15 19 26 38
55 102 81 147 98 169 10 13 18 27 18 31 0 9 64 119 80 138 6 6 8 12 4 12 -3 0
-1 7 6 15 13 16 29 42 80 135 50 90 65 115 70 120 3 3 14 23 25 45 11 22 23
42 26 45 3 3 23 35 43 73 l38 67 -1335 0 -1335 0 -40 -67z"/>
<path d="M8094 11328 c-32 -57 -61 -105 -64 -108 -3 -3 -16 -25 -29 -50 -30
-56 -126 -223 -158 -272 -12 -21 -23 -42 -23 -48 0 -5 -4 -10 -10 -10 -5 0
-10 -4 -10 -10 0 -5 -50 -96 -111 -202 -61 -106 -121 -211 -134 -233 -18 -34
-54 -94 -95 -165 -5 -8 -22 -37 -38 -65 -16 -27 -39 -68 -51 -90 -13 -22 -32
-52 -43 -67 -11 -16 -17 -28 -13 -28 3 0 -8 -20 -25 -44 -16 -25 -30 -47 -30
-49 0 -2 -30 -56 -67 -118 -36 -63 -73 -127 -81 -144 -9 -16 -18 -32 -21 -35
-3 -3 -13 -18 -21 -35 -8 -16 -17 -32 -20 -35 -3 -3 -11 -16 -18 -30 -7 -14
-53 -95 -102 -179 -50 -85 -90 -159 -90 -163 0 -4 -4 -8 -8 -8 -5 0 -14 -16
-22 -35 -8 -19 -17 -35 -21 -35 -4 0 -12 -12 -18 -27 -6 -16 -25 -50 -42 -78
-16 -27 -33 -58 -36 -67 -3 -10 -10 -18 -15 -18 -5 0 -6 -4 -3 -10 3 -5 1 -10
-4 -10 -6 0 -11 -5 -11 -11 0 -6 -9 -23 -19 -38 -11 -14 -30 -47 -43 -71 -48
-88 -81 -145 -99 -171 -10 -14 -16 -29 -12 -33 3 -3 1 -6 -5 -6 -7 0 -12 -7
-12 -15 0 -7 -7 -18 -16 -23 -9 -5 -15 -12 -14 -16 2 -6 -33 -71 -113 -209
-11 -18 -29 -50 -40 -72 -12 -22 -25 -42 -28 -45 -5 -5 -45 -74 -81 -140 -10
-19 -30 -53 -44 -75 -14 -22 -27 -48 -31 -57 -3 -10 -10 -18 -15 -18 -5 0 -6
-4 -3 -10 3 -6 1 -10 -5 -10 -6 0 -9 -4 -6 -9 4 -5 2 -11 -2 -13 -4 -1 -21
-25 -36 -53 -39 -70 -66 -116 -125 -218 -28 -49 -51 -92 -51 -97 0 -5 -4 -10
-8 -12 -4 -1 -46 -70 -93 -152 -46 -82 -94 -165 -106 -185 -13 -20 -26 -43
-30 -51 -4 -8 -28 -52 -55 -97 -26 -45 -48 -86 -48 -92 0 -5 -4 -11 -8 -13 -4
-1 -23 -30 -41 -63 -50 -89 -65 -115 -100 -173 -17 -29 -31 -57 -31 -62 0 -6
-3 -10 -7 -10 -5 0 -21 -25 -37 -55 -16 -30 -32 -55 -36 -55 -3 0 -7 -6 -7
-13 0 -8 -22 -52 -50 -98 -28 -46 -59 -101 -69 -121 -10 -21 -21 -38 -26 -38
-4 0 -8 -4 -8 -9 0 -5 -38 -75 -85 -156 -47 -80 -85 -148 -85 -150 0 -3 -16
-29 -35 -59 -19 -30 -35 -60 -35 -66 0 -5 -4 -10 -10 -10 -5 0 -10 -5 -10 -10
0 -10 -133 -243 -151 -266 -5 -6 -6 -14 -2 -17 3 -4 2 -7 -4 -7 -6 0 -16 -14
-23 -31 -7 -17 -18 -36 -24 -43 -10 -11 -37 -59 -75 -131 -9 -16 -19 -32 -22
-35 -3 -3 -21 -34 -40 -70 -19 -36 -37 -67 -40 -70 -3 -3 -19 -30 -36 -60 -17
-30 -63 -111 -103 -180 -41 -69 -84 -143 -97 -165 -12 -22 -28 -52 -34 -67 -6
-16 -15 -28 -20 -28 -5 0 -9 -4 -9 -9 0 -6 -203 -365 -249 -441 -17 -28 -154
-265 -179 -310 -14 -25 -33 -57 -43 -72 -11 -14 -19 -30 -19 -36 0 -5 -7 -15
-15 -22 -9 -7 -13 -15 -11 -18 3 -2 -8 -24 -24 -48 -17 -23 -30 -45 -30 -47 0
-4 -55 -101 -90 -157 -5 -8 -22 -39 -37 -67 -15 -29 -31 -53 -35 -53 -4 0 -8
-5 -8 -10 0 -6 -25 -54 -56 -108 -210 -361 -249 -429 -258 -449 -6 -13 -15
-23 -19 -23 -5 0 -5 -4 -2 -10 3 -5 1 -10 -4 -10 -6 0 -11 -4 -11 -10 0 -8
-27 -56 -78 -140 -9 -14 -14 -25 -11 -25 2 0 -5 -13 -17 -30 -33 -47 -174
-294 -174 -304 0 -5 -3 -11 -7 -13 -5 -1 -16 -18 -25 -36 l-17 -32 1337 2
1336 3 22 40 c13 22 27 45 33 52 6 7 11 19 11 27 0 8 4 16 8 18 10 4 92 146
92 159 0 5 4 9 9 9 5 0 13 9 16 21 6 19 74 138 179 314 22 39 48 84 56 100 8
17 21 36 28 43 6 7 12 20 12 28 0 8 5 14 10 14 6 0 10 6 10 14 0 7 7 19 15 26
9 7 13 15 10 18 -3 3 1 12 9 21 7 9 28 43 45 76 18 32 41 71 52 86 10 14 16
29 12 33 -3 3 -1 6 5 6 7 0 12 5 12 11 0 6 9 23 19 38 11 14 30 47 43 71 55
102 81 146 96 163 8 9 12 17 8 17 -4 0 1 12 12 28 11 15 43 70 72 122 30 52
56 97 59 100 6 5 33 53 70 125 9 16 20 33 25 37 5 3 11 14 12 23 1 9 9 24 17
33 8 10 29 44 47 77 51 93 60 108 81 140 10 17 26 44 34 60 8 17 20 37 25 45
16 25 124 211 168 290 24 41 47 82 52 90 6 8 51 87 101 175 51 88 101 174 113
190 11 17 19 30 17 30 -3 0 2 11 11 25 42 69 78 131 78 135 0 3 11 24 26 46
25 40 42 70 92 159 14 25 30 48 36 52 6 4 7 8 3 8 -5 0 0 12 10 28 30 45 43
66 50 82 4 8 49 87 100 174 51 87 93 162 93 167 0 4 6 14 13 21 7 7 29 42 49
78 40 73 84 150 129 225 16 28 34 59 39 70 6 11 19 34 29 50 10 17 27 46 38
65 11 19 46 80 78 135 32 55 66 114 75 130 9 17 36 64 60 105 24 41 43 78 42
83 -1 4 3 7 8 7 6 0 10 7 10 15 0 9 7 18 15 21 8 4 15 12 15 19 0 16 41 88 52
93 4 2 8 8 8 12 0 5 23 49 51 97 28 48 60 104 71 123 11 19 43 75 71 123 29
49 61 105 73 125 62 110 81 143 119 207 22 39 44 77 48 85 4 8 19 33 32 55 14
22 32 54 40 70 17 33 26 48 68 112 15 24 24 43 20 43 -4 0 -3 4 2 8 6 4 21 27
34 52 14 25 29 48 34 51 5 3 8 9 7 13 -1 4 9 24 22 44 12 20 30 51 39 67 25
48 61 109 69 120 4 6 19 30 32 55 14 25 57 100 97 167 39 68 71 126 71 131 0
4 9 18 20 30 12 12 17 22 13 22 -4 0 -3 4 2 8 9 7 46 70 69 119 6 13 14 23 19
23 4 0 7 4 7 10 0 5 23 47 50 94 28 47 50 89 50 95 0 6 4 11 9 11 5 0 12 9 16
19 3 11 17 36 30 55 13 20 22 36 19 36 -3 0 4 13 15 29 12 16 21 34 21 39 0 6
4 12 8 14 4 2 59 93 122 203 62 110 116 202 119 205 3 3 16 25 29 50 12 25 32
61 43 80 26 42 199 341 226 390 11 19 34 58 51 86 18 28 32 56 32 63 0 6 4 11
9 11 5 0 12 11 15 25 4 14 11 25 16 25 6 0 10 4 10 9 0 5 22 47 48 93 26 46
51 90 55 98 4 8 16 29 27 45 11 17 24 39 30 50 5 11 23 43 40 70 16 28 33 57
37 65 3 8 16 31 28 50 21 33 32 52 101 175 15 28 34 56 41 63 7 7 13 18 13 24
0 6 20 44 45 85 25 40 45 76 45 78 0 3 -600 5 -1334 5 l-1335 0 -57 -102z"/>
<path d="M12081 9047 c-19 -34 -37 -64 -40 -67 -4 -3 -18 -27 -31 -55 -14 -27
-28 -52 -31 -55 -3 -3 -32 -52 -64 -110 -33 -58 -62 -107 -65 -110 -4 -3 -13
-18 -22 -35 -8 -16 -25 -48 -38 -70 -13 -22 -30 -53 -39 -68 -9 -16 -21 -36
-26 -45 -6 -9 -30 -51 -53 -92 -24 -41 -47 -82 -52 -90 -31 -49 -110 -193
-110 -201 0 -5 -4 -9 -10 -9 -5 0 -10 -5 -10 -11 0 -6 -8 -23 -18 -37 -11 -15
-32 -52 -48 -82 -16 -30 -32 -56 -36 -58 -5 -2 -8 -7 -8 -12 0 -7 -103 -189
-130 -230 -6 -8 -13 -22 -17 -30 -3 -8 -14 -27 -24 -41 -10 -14 -16 -29 -12
-33 3 -3 1 -6 -4 -6 -6 0 -21 -21 -34 -47 -12 -27 -25 -50 -29 -53 -3 -3 -11
-16 -18 -30 -26 -51 -78 -140 -90 -152 -7 -7 -12 -15 -12 -19 0 -5 -17 -36
-37 -71 -68 -115 -84 -143 -90 -160 -3 -10 -9 -18 -14 -18 -5 0 -9 -7 -9 -15
0 -8 -5 -15 -11 -15 -5 0 -8 -4 -4 -9 3 -5 -2 -16 -10 -24 -8 -9 -15 -20 -15
-25 0 -5 -7 -15 -15 -22 -8 -7 -13 -16 -10 -20 3 -4 -1 -13 -9 -19 -7 -6 -21
-29 -31 -51 -10 -22 -22 -40 -27 -40 -4 0 -8 -6 -8 -12 -1 -7 -16 -38 -35 -68
-19 -30 -42 -71 -51 -90 -10 -19 -20 -37 -23 -40 -6 -5 -12 -15 -59 -99 -14
-25 -34 -59 -44 -76 -10 -16 -21 -37 -25 -45 -6 -13 -46 -81 -80 -136 -7 -10
-20 -35 -30 -54 -9 -19 -20 -37 -23 -40 -4 -3 -13 -20 -21 -37 -8 -18 -18 -33
-22 -33 -5 0 -5 -4 -2 -10 3 -5 1 -10 -4 -10 -6 0 -11 -4 -11 -9 0 -5 -20 -44
-45 -85 -25 -42 -45 -81 -45 -86 0 -6 -4 -10 -10 -10 -5 0 -10 -7 -10 -15 0
-8 -4 -15 -10 -15 -5 0 -9 -3 -8 -7 2 -5 -8 -26 -21 -48 -14 -22 -38 -64 -54
-94 -16 -30 -34 -59 -39 -65 -5 -6 -17 -26 -26 -43 -39 -75 -96 -169 -106
-175 -6 -4 -7 -8 -3 -8 8 0 3 -9 -33 -65 -11 -16 -26 -44 -34 -61 -8 -17 -19
-35 -25 -38 -6 -4 -9 -12 -6 -17 4 -5 1 -9 -4 -9 -6 0 -11 -6 -11 -14 0 -8 -3
-16 -7 -18 -5 -1 -17 -21 -28 -43 -11 -22 -23 -44 -28 -50 -17 -22 -105 -175
-100 -175 2 0 -3 -7 -11 -16 -9 -8 -14 -20 -11 -25 4 -5 1 -9 -4 -9 -6 0 -11
-7 -11 -15 0 -8 -4 -15 -8 -15 -5 0 -19 -23 -32 -50 -13 -27 -27 -50 -32 -50
-4 0 -8 -6 -8 -12 -1 -7 -16 -38 -35 -68 -19 -30 -42 -72 -52 -92 -10 -21 -21
-38 -25 -38 -5 0 -8 -5 -8 -10 0 -6 -11 -28 -25 -50 -14 -22 -23 -40 -20 -40
3 0 -3 -10 -15 -22 -11 -12 -20 -28 -20 -35 0 -7 -4 -13 -8 -13 -4 0 -13 -12
-19 -27 -15 -34 -56 -108 -71 -125 -6 -7 -12 -20 -14 -28 -2 -8 -6 -17 -9 -20
-8 -6 -147 -246 -173 -298 -10 -20 -21 -39 -25 -42 -6 -5 -12 -16 -53 -89 -59
-106 -82 -146 -88 -151 -3 -3 -14 -21 -23 -40 -10 -19 -31 -57 -48 -85 -16
-27 -32 -58 -36 -67 -3 -10 -9 -18 -14 -18 -5 0 -9 -4 -9 -9 0 -5 -57 -107
-126 -227 -70 -121 -149 -259 -177 -309 -28 -49 -56 -97 -62 -105 -7 -8 -26
-40 -42 -70 -45 -84 -264 -463 -276 -477 -7 -10 260 -13 1329 -13 l1339 0 70
122 c39 67 72 126 74 132 2 6 7 13 10 16 8 7 37 57 56 98 8 17 20 32 25 32 6
0 9 4 8 8 -3 8 119 230 132 242 3 3 16 25 29 50 13 25 31 53 40 64 9 10 15 20
13 22 -2 4 64 121 139 247 16 26 29 52 29 57 0 6 4 10 8 10 5 0 16 19 27 43
10 23 35 67 56 98 21 31 35 59 32 63 -4 3 -1 6 5 6 7 0 12 4 12 10 0 7 132
242 180 320 20 33 96 167 109 193 7 15 17 27 22 27 5 0 9 9 9 20 0 11 4 20 9
20 5 0 11 8 14 18 8 23 40 76 50 80 4 2 7 10 7 18 0 8 5 20 10 27 17 20 118
195 125 217 3 11 11 20 16 20 5 0 9 4 9 9 0 9 165 298 182 318 6 7 7 13 2 13
-5 0 -4 4 1 8 6 4 51 77 100 162 49 85 93 158 99 162 6 4 8 8 4 8 -4 0 7 24
24 53 17 28 42 72 56 97 13 25 30 52 37 60 7 8 18 30 26 48 8 17 17 32 21 32
5 0 8 4 8 9 0 9 154 280 182 320 10 13 15 28 12 33 -3 4 -2 8 3 8 4 0 19 21
33 48 13 26 28 49 32 52 4 3 12 17 17 30 11 25 32 61 41 70 3 3 14 23 25 45
11 22 23 42 28 43 4 2 7 7 7 12 0 9 99 181 109 190 3 3 7 10 8 15 1 6 20 41
43 78 22 37 48 83 57 102 9 19 20 35 25 35 4 0 8 4 8 9 0 14 111 205 124 213
6 4 8 8 4 8 -4 0 1 15 12 33 11 17 23 40 26 50 4 9 10 17 15 17 5 0 9 6 9 13
0 7 12 29 26 50 14 21 26 46 26 55 1 14 -147 272 -290 502 -64 105 -342 573
-342 577 0 2 -14 25 -32 51 -18 26 -32 49 -31 52 1 3 -4 12 -11 20 -7 8 -16
22 -20 30 -3 8 -14 27 -24 42 -9 14 -32 53 -51 85 -19 32 -46 76 -60 98 -14
22 -26 42 -26 45 0 3 -29 51 -63 107 -35 56 -63 105 -62 109 1 4 -2 10 -7 13
-5 3 -27 35 -48 71 -21 36 -45 73 -53 83 -8 9 -12 17 -9 17 4 0 -16 35 -43 78
-28 42 -50 82 -50 89 0 6 -3 13 -8 15 -4 2 -32 45 -62 95 -30 51 -57 93 -60
93 -3 0 -20 -28 -39 -63z"/>
</g>
</svg>
